ISO-10303-21;
HEADER;
FILE_DESCRIPTION (( 'STEP AP214' ),
    '1' );
FILE_NAME ('Base.STEP',
    '2026-09-29T12:57:44',
    ( '' ),
    ( '' ),
    'SwSTEP 2.0',
    'SolidWorks 2026',
    '' );
FILE_SCHEMA (( 'AUTOMOTIVE_DESIGN' ));
ENDSEC;

DATA;
#1 = DIRECTION ( 'NONE',  ( -0.000000000000000000, -0.000000000000000000, -1.000000000000000000 ) ) ;
#2 = VERTEX_POINT ( 'NONE', #366 ) ;
#3 = DIRECTION ( 'NONE',  ( -1.151699909553183045E-16, 0.000000000000000000, -1.000000000000000000 ) ) ;
#4 = CARTESIAN_POINT ( 'NONE',  ( -43.87183915600690653, 5.000000000000004441, 4.000000000000005329 ) ) ;
#5 = CARTESIAN_POINT ( 'NONE',  ( 80.87406610312552857, 5.000000000000004441, 3.999999999999990674 ) ) ;
#6 = VERTEX_POINT ( 'NONE', #215 ) ;
#7 = CARTESIAN_POINT ( 'NONE',  ( -5.109777271841401887E-46, 109.9500000000000028, -4.436726294285987350E-30 ) ) ;
#8 = CARTESIAN_POINT ( 'NONE',  ( 78.27406610312552004, 2.399999999999998135, 3.999999999999991562 ) ) ;
#9 = EDGE_CURVE ( 'NONE', #1063, #566, #605, .T. ) ;
#10 = CARTESIAN_POINT ( 'NONE',  ( 8.815396139010830530E-17, 4.050000000000000711, -3.141560706114068586E-30 ) ) ;
#11 = ORIENTED_EDGE ( 'NONE', *, *, #264, .F. ) ;
#12 = CARTESIAN_POINT ( 'NONE',  ( -42.22183915600690085, -2.515282029323320511E-62, 4.000000000000005329 ) ) ;
#13 = VECTOR ( 'NONE', #505, 1000.000000000000000 ) ;
#14 = CARTESIAN_POINT ( 'NONE',  ( -46.27183915600690511, -2.392219471338273174E-62, -1.999999999999994893 ) ) ;
#15 = AXIS2_PLACEMENT_3D ( 'NONE', #247, #87, #415 ) ;
#16 = CARTESIAN_POINT ( 'NONE',  ( 81.22406610312553710, 5.000000000000004441, 3.999999999999990674 ) ) ;
#17 = DIRECTION ( 'NONE',  ( -1.000000000000000000, 0.000000000000000000, 0.000000000000000000 ) ) ;
#18 = ORIENTED_EDGE ( 'NONE', *, *, #308, .T. ) ;
#19 = CARTESIAN_POINT ( 'NONE',  ( -46.27183915600690511, 3.000000000000002665, -1.999999999999994893 ) ) ;
#20 = ORIENTED_EDGE ( 'NONE', *, *, #986, .F. ) ;
#21 = CARTESIAN_POINT ( 'NONE',  ( -43.27183915600689801, 109.0000000000000000, 4.983941861644303195E-15 ) ) ;
#22 = CARTESIAN_POINT ( 'NONE',  ( 83.27406610312553426, 109.0000000000000000, -2.000000000000009770 ) ) ;
#23 = EDGE_LOOP ( 'NONE', ( #932, #489, #131, #379, #757, #1067, #399, #1076 ) ) ;
#24 = LINE ( 'NONE', #623, #966 ) ;
#25 = ADVANCED_FACE ( 'NONE', ( #939 ), #857, .T. ) ;
#26 = PLANE ( 'NONE',  #759 ) ;
#27 = ADVANCED_FACE ( 'NONE', ( #773 ), #26, .T. ) ;
#28 = LINE ( 'NONE', #670, #964 ) ;
#29 = DIRECTION ( 'NONE',  ( 1.419579739364189686E-48, -1.000000000000000000, 1.232595164407830946E-32 ) ) ;
#30 = ORIENTED_EDGE ( 'NONE', *, *, #77, .T. ) ;
#31 = DIRECTION ( 'NONE',  ( 0.000000000000000000, -0.000000000000000000, -1.000000000000000000 ) ) ;
#32 = DIRECTION ( 'NONE',  ( -1.151699909553183045E-16, 0.000000000000000000, -1.000000000000000000 ) ) ;
#33 = AXIS2_PLACEMENT_3D ( 'NONE', #558, #651, #826 ) ;
#34 = CARTESIAN_POINT ( 'NONE',  ( -42.22183915600690085, 5.000000000000004441, 4.000000000000005329 ) ) ;
#35 = VECTOR ( 'NONE', #219, 1000.000000000000114 ) ;
#36 = CIRCLE ( 'NONE', #672, 0.9500000000000063949 ) ;
#37 = DIRECTION ( 'NONE',  ( -2.176641021977982493E-17, -1.000000000000000000, 2.506837268141790479E-33 ) ) ;
#38 = VECTOR ( 'NONE', #402, 1000.000000000000000 ) ;
#39 = ORIENTED_EDGE ( 'NONE', *, *, #228, .T. ) ;
#40 = CARTESIAN_POINT ( 'NONE',  ( 78.27406610312547741, 109.9500000000000028, -9.014823485132955588E-15 ) ) ;
#41 = ORIENTED_EDGE ( 'NONE', *, *, #849, .T. ) ;
#42 = LINE ( 'NONE', #1044, #232 ) ;
#43 = FACE_OUTER_BOUND ( 'NONE', #1077, .T. ) ;
#44 = ORIENTED_EDGE ( 'NONE', *, *, #788, .F. ) ;
#45 = ADVANCED_FACE ( 'NONE', ( #690 ), #277, .F. ) ;
#46 = DIRECTION ( 'NONE',  ( -1.151699909553183292E-16, -1.232595164407830946E-32, -1.000000000000000000 ) ) ;
#47 = VERTEX_POINT ( 'NONE', #201 ) ;
#48 = DIRECTION ( 'NONE',  ( -1.000000000000000000, 0.000000000000000000, 1.151699909553183292E-16 ) ) ;
#49 = PLANE ( 'NONE',  #194 ) ;
#50 = VERTEX_POINT ( 'NONE', #554 ) ;
#51 = DIRECTION ( 'NONE',  ( -1.000000000000000000, 0.000000000000000000, 0.000000000000000000 ) ) ;
#52 = CYLINDRICAL_SURFACE ( 'NONE', #145, 3.000000000000002665 ) ;
#53 = PLANE ( 'NONE',  #731 ) ;
#54 = AXIS2_PLACEMENT_3D ( 'NONE', #780, #462, #787 ) ;
#55 = ORIENTED_EDGE ( 'NONE', *, *, #706, .T. ) ;
#56 = PRODUCT_DEFINITION_FORMATION_WITH_SPECIFIED_SOURCE ( 'ANY', '', #956, .NOT_KNOWN. ) ;
#57 = DIRECTION ( 'NONE',  ( -1.000000000000000000, 0.000000000000000000, 0.000000000000000000 ) ) ;
#58 = FACE_OUTER_BOUND ( 'NONE', #944, .T. ) ;
#59 = CARTESIAN_POINT ( 'NONE',  ( -43.27183915600689801, 109.0000000000000000, -1.999999999999995337 ) ) ;
#60 = ORIENTED_EDGE ( 'NONE', *, *, #517, .F. ) ;
#61 = ORIENTED_EDGE ( 'NONE', *, *, #385, .F. ) ;
#62 = EDGE_CURVE ( 'NONE', #827, #319, #619, .T. ) ;
#63 = ADVANCED_FACE ( 'NONE', ( #1061 ), #52, .T. ) ;
#64 = ORIENTED_EDGE ( 'NONE', *, *, #179, .T. ) ;
#65 = EDGE_CURVE ( 'NONE', #1070, #653, #388, .T. ) ;
#66 = DIRECTION ( 'NONE',  ( -0.000000000000000000, -0.000000000000000000, -1.000000000000000000 ) ) ;
#67 = ORIENTED_EDGE ( 'NONE', *, *, #1066, .F. ) ;
#68 = CARTESIAN_POINT ( 'NONE',  ( 78.27406610312552004, 2.399999999999998135, 3.999999999999991562 ) ) ;
#69 = VECTOR ( 'NONE', #266, 1000.000000000000000 ) ;
#70 = VERTEX_POINT ( 'NONE', #1057 ) ;
#71 = VECTOR ( 'NONE', #522, 1000.000000000000000 ) ;
#72 = EDGE_LOOP ( 'NONE', ( #85, #1040, #574, #823 ) ) ;
#73 = CONICAL_SURFACE ( 'NONE', #612, 2.950000000000001066, 0.1732456664523634171 ) ;
#74 = CARTESIAN_POINT ( 'NONE',  ( 78.27406610312552004, 2.399999999999998135, 3.999999999999991562 ) ) ;
#75 = EDGE_LOOP ( 'NONE', ( #810, #286, #315, #61 ) ) ;
#76 = DIRECTION ( 'NONE',  ( -1.151699909553183045E-16, 0.000000000000000000, -1.000000000000000000 ) ) ;
#77 = EDGE_CURVE ( 'NONE', #1055, #323, #303, .T. ) ;
#78 = PLANE ( 'NONE',  #565 ) ;
#79 = MANIFOLD_SOLID_BREP ( 'Base', #239 ) ;
#80 = ADVANCED_FACE ( 'NONE', ( #975 ), #963, .T. ) ;
#81 = ORIENTED_EDGE ( 'NONE', *, *, #248, .F. ) ;
#82 = ORIENTED_EDGE ( 'NONE', *, *, #157, .T. ) ;
#83 = CARTESIAN_POINT ( 'NONE',  ( 78.27406610312552004, 5.000000000000004441, -9.014124624680264208E-15 ) ) ;
#84 = CARTESIAN_POINT ( 'NONE',  ( -43.27183915600689801, 109.0000000000000000, -1.999999999999995337 ) ) ;
#85 = ORIENTED_EDGE ( 'NONE', *, *, #867, .T. ) ;
#86 = VECTOR ( 'NONE', #338, 1000.000000000000000 ) ;
#87 = DIRECTION ( 'NONE',  ( -1.151699909553183292E-16, -1.232595164407830946E-32, -1.000000000000000000 ) ) ;
#88 = AXIS2_PLACEMENT_3D ( 'NONE', #257, #245, #324 ) ;
#89 = LINE ( 'NONE', #513, #438 ) ;
#90 = LINE ( 'NONE', #844, #647 ) ;
#91 = EDGE_LOOP ( 'NONE', ( #416, #815, #459, #184 ) ) ;
#92 = CARTESIAN_POINT ( 'NONE',  ( -41.27183915600689801, 5.000000000000004441, 4.000000000000004441 ) ) ;
#93 = ADVANCED_FACE ( 'NONE', ( #910 ), #654, .T. ) ;
#94 = EDGE_CURVE ( 'NONE', #674, #153, #342, .T. ) ;
#95 = CARTESIAN_POINT ( 'NONE',  ( 4.606799638212732180E-16, 107.9500000000000028, 4.000000000000000000 ) ) ;
#96 = DIRECTION ( 'NONE',  ( 0.000000000000000000, -0.1723803317522464851, -0.9850304671557045255 ) ) ;
#97 = EDGE_CURVE ( 'NONE', #1037, #181, #417, .T. ) ;
#98 = ORIENTED_EDGE ( 'NONE', *, *, #788, .T. ) ;
#99 = CARTESIAN_POINT ( 'NONE',  ( -41.27183915600689801, 107.0000000000000000, 4.000000000000004441 ) ) ;
#100 = LINE ( 'NONE', #8, #577 ) ;
#101 = DIRECTION ( 'NONE',  ( 1.419579739364189686E-48, -1.000000000000000000, 1.232595164407830946E-32 ) ) ;
#102 = VERTEX_POINT ( 'NONE', #883 ) ;
#103 = CARTESIAN_POINT ( 'NONE',  ( 4.606799638212732180E-16, 107.9500000000000028, 4.000000000000000000 ) ) ;
#104 = AXIS2_PLACEMENT_3D ( 'NONE', #946, #549, #114 ) ;
#105 = CIRCLE ( 'NONE', #477, 2.950000000000001066 ) ;
#106 = ORIENTED_EDGE ( 'NONE', *, *, #999, .T. ) ;
#107 = CIRCLE ( 'NONE', #716, 3.000000000000002665 ) ;
#108 = CARTESIAN_POINT ( 'NONE',  ( 78.27406610312552004, 107.0000000000000000, 3.999999999999991562 ) ) ;
#109 = CARTESIAN_POINT ( 'NONE',  ( 83.27406610312553426, -6.328577613974665732E-62, -9.590673439909551055E-15 ) ) ;
#110 = EDGE_CURVE ( 'NONE', #412, #323, #171, .T. ) ;
#111 = ORIENTED_EDGE ( 'NONE', *, *, #626, .T. ) ;
#112 = FACE_OUTER_BOUND ( 'NONE', #283, .T. ) ;
#113 = ADVANCED_FACE ( 'NONE', ( #803 ), #1051, .T. ) ;
#114 = DIRECTION ( 'NONE',  ( 1.000000000000000000, 0.000000000000000000, -1.445602896647337931E-16 ) ) ;
#115 = LINE ( 'NONE', #4, #693 ) ;
#116 = LINE ( 'NONE', #673, #983 ) ;
#117 = ADVANCED_FACE ( 'NONE', ( #58 ), #160, .F. ) ;
#118 = VERTEX_POINT ( 'NONE', #796 ) ;
#119 = DIRECTION ( 'NONE',  ( -1.151699909553183045E-16, 0.000000000000000000, -1.000000000000000000 ) ) ;
#120 = VERTEX_POINT ( 'NONE', #472 ) ;
#121 = CARTESIAN_POINT ( 'NONE',  ( -41.27183915600689801, 5.000000000000004441, 2.000000000000003109 ) ) ;
#122 = DIRECTION ( 'NONE',  ( -1.419579739364189686E-48, 1.000000000000000000, -1.232595164407830946E-32 ) ) ;
#123 = EDGE_LOOP ( 'NONE', ( #781, #322, #560, #1043 ) ) ;
#124 = DIRECTION ( 'NONE',  ( -1.419579739364189686E-48, 1.000000000000000000, -1.232595164407830946E-32 ) ) ;
#125 = DIRECTION ( 'NONE',  ( -1.151699909553183045E-16, 0.000000000000000000, -1.000000000000000000 ) ) ;
#126 = ORIENTED_EDGE ( 'NONE', *, *, #206, .F. ) ;
#127 = FACE_OUTER_BOUND ( 'NONE', #235, .T. ) ;
#128 = VECTOR ( 'NONE', #840, 1000.000000000000114 ) ;
#129 = VECTOR ( 'NONE', #340, 1000.000000000000000 ) ;
#130 = DIRECTION ( 'NONE',  ( -1.151699909553183045E-16, 0.000000000000000000, -1.000000000000000000 ) ) ;
#131 = ORIENTED_EDGE ( 'NONE', *, *, #828, .T. ) ;
#132 = DIRECTION ( 'NONE',  ( -0.000000000000000000, -0.000000000000000000, -1.000000000000000000 ) ) ;
#133 = FACE_OUTER_BOUND ( 'NONE', #234, .T. ) ;
#134 = ORIENTED_EDGE ( 'NONE', *, *, #569, .F. ) ;
#135 = PLANE ( 'NONE',  #648 ) ;
#136 = CARTESIAN_POINT ( 'NONE',  ( -41.27183915600689801, 107.0000000000000000, 4.000000000000004441 ) ) ;
#137 = ADVANCED_FACE ( 'NONE', ( #904 ), #495, .T. ) ;
#138 = ORIENTED_EDGE ( 'NONE', *, *, #952, .T. ) ;
#139 = DIRECTION ( 'NONE',  ( 1.151699909553183045E-16, 0.000000000000000000, 1.000000000000000000 ) ) ;
#140 = LINE ( 'NONE', #369, #1071 ) ;
#141 = ORIENTED_EDGE ( 'NONE', *, *, #593, .F. ) ;
#142 =( NAMED_UNIT ( * ) SI_UNIT ( $, .STERADIAN. ) SOLID_ANGLE_UNIT ( ) );
#143 = CARTESIAN_POINT ( 'NONE',  ( 81.22406610312553710, 5.000000000000004441, 1.999999999999990452 ) ) ;
#144 = FACE_BOUND ( 'NONE', #784, .T. ) ;
#145 = AXIS2_PLACEMENT_3D ( 'NONE', #1078, #914, #1000 ) ;
#146 = AXIS2_PLACEMENT_3D ( 'NONE', #375, #207, #868 ) ;
#147 = VERTEX_POINT ( 'NONE', #918 ) ;
#148 = EDGE_CURVE ( 'NONE', #498, #687, #925, .T. ) ;
#149 = ORIENTED_EDGE ( 'NONE', *, *, #814, .T. ) ;
#150 = CARTESIAN_POINT ( 'NONE',  ( -41.27183915600689801, 107.0000000000000000, 2.000000000000003109 ) ) ;
#151 = ORIENTED_EDGE ( 'NONE', *, *, #913, .T. ) ;
#152 = DIRECTION ( 'NONE',  ( -1.151699909553183292E-16, -1.232595164407830946E-32, -1.000000000000000000 ) ) ;
#153 = VERTEX_POINT ( 'NONE', #751 ) ;
#154 = LINE ( 'NONE', #720, #38 ) ;
#155 = DIRECTION ( 'NONE',  ( -1.151699909553183292E-16, -1.232595164407830946E-32, -1.000000000000000000 ) ) ;
#156 = AXIS2_PLACEMENT_3D ( 'NONE', #792, #296, #969 ) ;
#157 = EDGE_CURVE ( 'NONE', #102, #498, #256, .T. ) ;
#158 = AXIS2_PLACEMENT_3D ( 'NONE', #692, #1032, #586 ) ;
#159 = ORIENTED_EDGE ( 'NONE', *, *, #94, .T. ) ;
#160 = PLANE ( 'NONE',  #890 ) ;
#161 = EDGE_CURVE ( 'NONE', #911, #339, #406, .T. ) ;
#162 = AXIS2_PLACEMENT_3D ( 'NONE', #585, #3, #737 ) ;
#163 = VERTEX_POINT ( 'NONE', #360 ) ;
#164 = CARTESIAN_POINT ( 'NONE',  ( -2.303399819106366090E-16, 112.0000000000000000, -2.000000000000000000 ) ) ;
#165 = ORIENTED_EDGE ( 'NONE', *, *, #898, .T. ) ;
#166 = CARTESIAN_POINT ( 'NONE',  ( 78.27406610312547741, 109.9500000000000028, 1.999999999999989120 ) ) ;
#167 = VERTEX_POINT ( 'NONE', #836 ) ;
#168 = CARTESIAN_POINT ( 'NONE',  ( -46.27183915600690511, 109.0000000000000000, 5.329451834510258109E-15 ) ) ;
#169 = ORIENTED_EDGE ( 'NONE', *, *, #872, .F. ) ;
#170 = DIRECTION ( 'NONE',  ( -1.151699909553183292E-16, -1.232595164407830946E-32, -1.000000000000000000 ) ) ;
#171 = CIRCLE ( 'NONE', #436, 2.600000000000004974 ) ;
#172 = ORIENTED_EDGE ( 'NONE', *, *, #990, .F. ) ;
#173 = EDGE_CURVE ( 'NONE', #837, #860, #445, .T. ) ;
#174 = VECTOR ( 'NONE', #125, 1000.000000000000000 ) ;
#175 = PLANE ( 'NONE',  #695 ) ;
#176 = AXIS2_PLACEMENT_3D ( 'NONE', #356, #1035, #212 ) ;
#177 = VECTOR ( 'NONE', #262, 1000.000000000000000 ) ;
#178 = LINE ( 'NONE', #768, #632 ) ;
#179 = EDGE_CURVE ( 'NONE', #267, #2, #116, .T. ) ;
#180 = DIRECTION ( 'NONE',  ( -1.000000000000000000, 0.000000000000000000, 0.000000000000000000 ) ) ;
#181 = VERTEX_POINT ( 'NONE', #5 ) ;
#182 = LINE ( 'NONE', #7, #633 ) ;
#183 = DIRECTION ( 'NONE',  ( -1.000000000000000000, 0.000000000000000000, 1.151699909553183292E-16 ) ) ;
#184 = ORIENTED_EDGE ( 'NONE', *, *, #949, .T. ) ;
#185 = DIRECTION ( 'NONE',  ( 1.151699909553183045E-16, -0.000000000000000000, 1.000000000000000000 ) ) ;
#186 = DIRECTION ( 'NONE',  ( 1.985304124878097196E-17, -0.9850304671557045255, 0.1723803317522462353 ) ) ;
#187 = LINE ( 'NONE', #615, #818 ) ;
#188 = EDGE_CURVE ( 'NONE', #2, #167, #756, .T. ) ;
#189 = DIRECTION ( 'NONE',  ( -0.9850304671557045255, 2.124751633568362527E-33, 0.1723803317522462353 ) ) ;
#190 = EDGE_CURVE ( 'NONE', #827, #1037, #90, .T. ) ;
#191 = VERTEX_POINT ( 'NONE', #437 ) ;
#192 = DIRECTION ( 'NONE',  ( -1.000000000000000000, 0.000000000000000000, 1.151699909553182305E-16 ) ) ;
#193 = MECHANICAL_DESIGN_GEOMETRIC_PRESENTATION_REPRESENTATION (  '', ( #524 ), #274 ) ;
#194 = AXIS2_PLACEMENT_3D ( 'NONE', #794, #1039, #294 ) ;
#195 = ORIENTED_EDGE ( 'NONE', *, *, #9, .F. ) ;
#196 = VECTOR ( 'NONE', #1062, 1000.000000000000000 ) ;
#197 = DIRECTION ( 'NONE',  ( 1.151699909553183292E-16, 1.232595164407830946E-32, 1.000000000000000000 ) ) ;
#198 = CARTESIAN_POINT ( 'NONE',  ( -41.27183915600689801, 2.399999999999999467, 4.000000000000004441 ) ) ;
#199 = ORIENTED_EDGE ( 'NONE', *, *, #567, .T. ) ;
#200 = CARTESIAN_POINT ( 'NONE',  ( -43.27183915600689801, 3.000000000000000000, -1.999999999999995337 ) ) ;
#201 = CARTESIAN_POINT ( 'NONE',  ( -43.27183915600689801, 0.000000000000000000, -1.999999999999995337 ) ) ;
#202 = DIRECTION ( 'NONE',  ( -1.151699909553183045E-16, 0.000000000000000000, -1.000000000000000000 ) ) ;
#203 = CARTESIAN_POINT ( 'NONE',  ( -43.87183915600690653, 5.000000000000004441, 4.000000000000005329 ) ) ;
#204 = VERTEX_POINT ( 'NONE', #763 ) ;
#205 = DIRECTION ( 'NONE',  ( -1.000000000000000000, 0.000000000000000000, 0.000000000000000000 ) ) ;
#206 = EDGE_CURVE ( 'NONE', #837, #1059, #105, .T. ) ;
#207 = DIRECTION ( 'NONE',  ( -1.151699909553183292E-16, -1.232595164407830946E-32, -1.000000000000000000 ) ) ;
#208 = CARTESIAN_POINT ( 'NONE',  ( 81.22406610312553710, 107.0000000000000000, 3.999999999999990674 ) ) ;
#209 = CARTESIAN_POINT ( 'NONE',  ( -44.22183915600690085, -2.454510395750457799E-62, 4.000000000000005329 ) ) ;
#210 = CARTESIAN_POINT ( 'NONE',  ( 79.22406610312553710, 5.000000000000004441, 3.999999999999990674 ) ) ;
#211 = ORIENTED_EDGE ( 'NONE', *, *, #512, .T. ) ;
#212 = DIRECTION ( 'NONE',  ( -1.000000000000000000, 0.000000000000000000, 0.000000000000000000 ) ) ;
#213 = EDGE_CURVE ( 'NONE', #153, #811, #775, .T. ) ;
#214 = DIRECTION ( 'NONE',  ( -1.000000000000000000, 0.000000000000000000, 1.151699909553182552E-16 ) ) ;
#215 = CARTESIAN_POINT ( 'NONE',  ( -44.22183915600690085, 107.0000000000000000, 5.093028815624852054E-15 ) ) ;
#216 = AXIS2_PLACEMENT_3D ( 'NONE', #699, #957, #214 ) ;
#217 = CYLINDRICAL_SURFACE ( 'NONE', #875, 3.000000000000002665 ) ;
#218 = ADVANCED_FACE ( 'NONE', ( #608 ), #602, .T. ) ;
#219 = DIRECTION ( 'NONE',  ( -0.1723803317522461243, 0.000000000000000000, -0.9850304671557045255 ) ) ;
#220 = EDGE_LOOP ( 'NONE', ( #272, #614, #649, #18 ) ) ;
#221 = ORIENTED_EDGE ( 'NONE', *, *, #9, .T. ) ;
#222 = LINE ( 'NONE', #473, #460 ) ;
#223 = CARTESIAN_POINT ( 'NONE',  ( 81.22406610312553710, 107.0000000000000000, -9.354574958451149675E-15 ) ) ;
#224 = ORIENTED_EDGE ( 'NONE', *, *, #188, .F. ) ;
#225 = CARTESIAN_POINT ( 'NONE',  ( -41.27183915600689801, 107.0000000000000000, 4.000000000000004441 ) ) ;
#226 = PRESENTATION_STYLE_ASSIGNMENT (( #717 ) ) ;
#227 = DIRECTION ( 'NONE',  ( 1.151699909553183045E-16, -0.000000000000000000, 1.000000000000000000 ) ) ;
#228 = EDGE_CURVE ( 'NONE', #687, #985, #853, .T. ) ;
#229 = ORIENTED_EDGE ( 'NONE', *, *, #474, .F. ) ;
#230 = DIRECTION ( 'NONE',  ( 1.151699909553183045E-16, -0.000000000000000000, 1.000000000000000000 ) ) ;
#231 = CIRCLE ( 'NONE', #851, 2.600000000000004974 ) ;
#232 = VECTOR ( 'NONE', #202, 1000.000000000000000 ) ;
#233 = ORIENTED_EDGE ( 'NONE', *, *, #606, .F. ) ;
#234 = EDGE_LOOP ( 'NONE', ( #503, #224, #44, #195, #345, #60, #630, #81 ) ) ;
#235 = EDGE_LOOP ( 'NONE', ( #310, #568, #394, #697 ) ) ;
#236 = CYLINDRICAL_SURFACE ( 'NONE', #244, 0.9499999999999995115 ) ;
#237 = EDGE_CURVE ( 'NONE', #1048, #683, #1006, .T. ) ;
#238 = ORIENTED_EDGE ( 'NONE', *, *, #596, .T. ) ;
#239 = CLOSED_SHELL ( 'NONE', ( #669, #766, #63, #333, #25, #812, #665, #387, #371, #609, #27, #93, #483, #750, #684, #137, #976, #45, #117, #1079, #497, #469, #709, #682, #374, #292, #689, #420, #80, #318, #218, #113, #646, #304, #411, #915 ) ) ;
#240 = AXIS2_PLACEMENT_3D ( 'NONE', #14, #677, #357 ) ;
#241 = EDGE_LOOP ( 'NONE', ( #950, #382, #233, #865 ) ) ;
#242 = AXIS2_PLACEMENT_3D ( 'NONE', #1008, #170, #668 ) ;
#243 = EDGE_LOOP ( 'NONE', ( #667, #725, #611, #790 ) ) ;
#244 = AXIS2_PLACEMENT_3D ( 'NONE', #225, #1056, #57 ) ;
#245 = DIRECTION ( 'NONE',  ( -1.151699909553183292E-16, -1.232595164407830946E-32, -1.000000000000000000 ) ) ;
#246 = DIRECTION ( 'NONE',  ( 0.000000000000000000, -0.1723803317522495382, 0.9850304671557040814 ) ) ;
#247 = CARTESIAN_POINT ( 'NONE',  ( 80.27406610312552004, 109.0000000000000000, -9.244517586333433901E-15 ) ) ;
#248 = EDGE_CURVE ( 'NONE', #163, #653, #354, .T. ) ;
#249 = CARTESIAN_POINT ( 'NONE',  ( 78.27406610312552004, 107.0000000000000000, 1.999999999999989564 ) ) ;
#250 = EDGE_LOOP ( 'NONE', ( #221, #521, #307, #401 ) ) ;
#251 = CARTESIAN_POINT ( 'NONE',  ( -43.87183915600690653, 107.0000000000000000, 4.000000000000005329 ) ) ;
#252 = DIRECTION ( 'NONE',  ( -1.151699909553183045E-16, 0.000000000000000000, -1.000000000000000000 ) ) ;
#253 = LINE ( 'NONE', #198, #730 ) ;
#254 = PRESENTATION_LAYER_ASSIGNMENT (  '', '', ( #524 ) ) ;
#255 = ORIENTED_EDGE ( 'NONE', *, *, #927, .T. ) ;
#256 = CIRCLE ( 'NONE', #563, 3.000000000000002665 ) ;
#257 = CARTESIAN_POINT ( 'NONE',  ( 80.27406610312552004, 3.000000000000000000, -2.000000000000009326 ) ) ;
#258 = VECTOR ( 'NONE', #758, 1000.000000000000000 ) ;
#259 = CARTESIAN_POINT ( 'NONE',  ( -41.27183915600689801, 5.000000000000004441, 4.000000000000004441 ) ) ;
#260 = CARTESIAN_POINT ( 'NONE',  ( -43.27183915600689801, 3.000000000000000000, 4.983941861644303195E-15 ) ) ;
#261 = EDGE_LOOP ( 'NONE', ( #229, #637, #700, #11 ) ) ;
#262 = DIRECTION ( 'NONE',  ( -1.419579739364189686E-48, 1.000000000000000000, -1.232595164407830946E-32 ) ) ;
#263 = CARTESIAN_POINT ( 'NONE',  ( 80.87406610312552857, 107.0000000000000000, 3.999999999999990674 ) ) ;
#264 = EDGE_CURVE ( 'NONE', #6, #118, #742, .T. ) ;
#265 = DIRECTION ( 'NONE',  ( 1.151699909553183045E-16, -0.000000000000000000, 1.000000000000000000 ) ) ;
#266 = DIRECTION ( 'NONE',  ( -1.151699909553183045E-16, 0.000000000000000000, -1.000000000000000000 ) ) ;
#267 = VERTEX_POINT ( 'NONE', #943 ) ;
#268 = DIRECTION ( 'NONE',  ( -1.000000000000000000, 0.000000000000000000, 0.000000000000000000 ) ) ;
#269 = ORIENTED_EDGE ( 'NONE', *, *, #533, .T. ) ;
#270 = PLANE ( 'NONE',  #996 ) ;
#271 = DIRECTION ( 'NONE',  ( -1.000000000000000000, 0.000000000000000000, 1.151699909553185264E-16 ) ) ;
#272 = ORIENTED_EDGE ( 'NONE', *, *, #799, .T. ) ;
#273 = CARTESIAN_POINT ( 'NONE',  ( -41.27183915600689801, 5.000000000000004441, 4.753548899991133503E-15 ) ) ;
#274 =( GEOMETRIC_REPRESENTATION_CONTEXT ( 3 ) GLOBAL_UNCERTAINTY_ASSIGNED_CONTEXT ( ( #920 ) ) GLOBAL_UNIT_ASSIGNED_CONTEXT ( ( #321, #745, #994 ) ) REPRESENTATION_CONTEXT ( 'NONE', 'WORKASPACE' ) );
#275 = CIRCLE ( 'NONE', #1052, 3.000000000000002665 ) ;
#276 = PLANE ( 'NONE',  #240 ) ;
#277 = CYLINDRICAL_SURFACE ( 'NONE', #156, 0.9499999999999995115 ) ;
#278 = AXIS2_PLACEMENT_3D ( 'NONE', #396, #714, #982 ) ;
#279 = DIRECTION ( 'NONE',  ( -1.151699909553183045E-16, 0.000000000000000000, -1.000000000000000000 ) ) ;
#280 = DIRECTION ( 'NONE',  ( -1.151699909553183292E-16, -1.232595164407830946E-32, -1.000000000000000000 ) ) ;
#281 = ORIENTED_EDGE ( 'NONE', *, *, #519, .F. ) ;
#282 = CARTESIAN_POINT ( 'NONE',  ( -44.22183915600690085, -2.454510395750457799E-62, 5.093028815624853632E-15 ) ) ;
#283 = EDGE_LOOP ( 'NONE', ( #733, #165, #583, #439 ) ) ;
#284 = FACE_OUTER_BOUND ( 'NONE', #680, .T. ) ;
#285 = DIRECTION ( 'NONE',  ( 1.985304124878136023E-17, 0.9850304671557040814, 0.1723803317522495937 ) ) ;
#286 = ORIENTED_EDGE ( 'NONE', *, *, #206, .T. ) ;
#287 = CARTESIAN_POINT ( 'NONE',  ( 83.27406610312553426, 3.000000000000003109, -2.000000000000009770 ) ) ;
#288 = EDGE_CURVE ( 'NONE', #442, #837, #253, .T. ) ;
#289 = CARTESIAN_POINT ( 'NONE',  ( 2.303399819106363625E-16, 2.050000000000002043, 1.999999999999998224 ) ) ;
#290 = ORIENTED_EDGE ( 'NONE', *, *, #569, .T. ) ;
#291 = PRODUCT_DEFINITION_SHAPE ( 'NONE', 'NONE',  #576 ) ;
#292 = ADVANCED_FACE ( 'NONE', ( #532 ), #859, .T. ) ;
#293 = FACE_OUTER_BOUND ( 'NONE', #123, .T. ) ;
#294 = DIRECTION ( 'NONE',  ( -1.419579739364189686E-48, 1.000000000000000000, -1.232595164407830946E-32 ) ) ;
#295 = ORIENTED_EDGE ( 'NONE', *, *, #190, .F. ) ;
#296 = DIRECTION ( 'NONE',  ( -1.151699909553183045E-16, 0.000000000000000000, -1.000000000000000000 ) ) ;
#297 = CIRCLE ( 'NONE', #906, 3.000000000000002665 ) ;
#298 = PLANE ( 'NONE',  #782 ) ;
#299 = CONICAL_SURFACE ( 'NONE', #908, 2.950000000000008171, 0.1732456664523628898 ) ;
#300 = CIRCLE ( 'NONE', #330, 2.950000000000008171 ) ;
#301 = CARTESIAN_POINT ( 'NONE',  ( 5.488339252113815603E-16, 4.050000000000000711, 4.000000000000000000 ) ) ;
#302 = ORIENTED_EDGE ( 'NONE', *, *, #110, .F. ) ;
#303 = LINE ( 'NONE', #166, #656 ) ;
#304 = ADVANCED_FACE ( 'NONE', ( #636 ), #49, .T. ) ;
#305 = DIRECTION ( 'NONE',  ( -1.151699909553183292E-16, -1.232595164407830946E-32, -1.000000000000000000 ) ) ;
#306 = EDGE_CURVE ( 'NONE', #978, #1059, #545, .T. ) ;
#307 = ORIENTED_EDGE ( 'NONE', *, *, #570, .F. ) ;
#308 = EDGE_CURVE ( 'NONE', #1003, #967, #1045, .T. ) ;
#309 = CARTESIAN_POINT ( 'NONE',  ( -42.22183915600690085, 107.0000000000000000, 4.862688833714215445E-15 ) ) ;
#310 = ORIENTED_EDGE ( 'NONE', *, *, #901, .F. ) ;
#311 = CARTESIAN_POINT ( 'NONE',  ( 81.22406610312553710, 5.000000000000004441, 1.999999999999990452 ) ) ;
#312 = VECTOR ( 'NONE', #334, 1000.000000000000000 ) ;
#313 = VECTOR ( 'NONE', #130, 1000.000000000000000 ) ;
#314 = VECTOR ( 'NONE', #822, 1000.000000000000000 ) ;
#315 = ORIENTED_EDGE ( 'NONE', *, *, #901, .T. ) ;
#316 = VECTOR ( 'NONE', #1064, 1000.000000000000000 ) ;
#317 = CARTESIAN_POINT ( 'NONE',  ( 79.22406610312553710, 107.0000000000000000, -9.124234976540513066E-15 ) ) ;
#318 = ADVANCED_FACE ( 'NONE', ( #972 ), #539, .T. ) ;
#319 = VERTEX_POINT ( 'NONE', #223 ) ;
#320 = ORIENTED_EDGE ( 'NONE', *, *, #785, .F. ) ;
#321 =( LENGTH_UNIT ( ) NAMED_UNIT ( * ) SI_UNIT ( .MILLI., .METRE. ) );
#322 = ORIENTED_EDGE ( 'NONE', *, *, #536, .F. ) ;
#323 = VERTEX_POINT ( 'NONE', #871 ) ;
#324 = DIRECTION ( 'NONE',  ( -1.000000000000000000, 0.000000000000000000, 1.445602896647337931E-16 ) ) ;
#325 = AXIS2_PLACEMENT_3D ( 'NONE', #616, #467, #705 ) ;
#326 = VERTEX_POINT ( 'NONE', #210 ) ;
#327 = DIRECTION ( 'NONE',  ( -0.000000000000000000, -0.000000000000000000, -1.000000000000000000 ) ) ;
#328 = AXIS2_PLACEMENT_3D ( 'NONE', #99, #917, #1004 ) ;
#329 = ORIENTED_EDGE ( 'NONE', *, *, #929, .T. ) ;
#330 = AXIS2_PLACEMENT_3D ( 'NONE', #899, #638, #974 ) ;
#331 = FACE_OUTER_BOUND ( 'NONE', #380, .T. ) ;
#332 = EDGE_CURVE ( 'NONE', #1059, #191, #1053, .T. ) ;
#333 = ADVANCED_FACE ( 'NONE', ( #455 ), #880, .F. ) ;
#334 = DIRECTION ( 'NONE',  ( -0.1723803317522497047, 0.000000000000000000, 0.9850304671557039704 ) ) ;
#335 = EDGE_LOOP ( 'NONE', ( #39, #988, #993, #453 ) ) ;
#336 = DIRECTION ( 'NONE',  ( -1.000000000000000000, 0.000000000000000000, 1.151699909553183292E-16 ) ) ;
#337 = DIRECTION ( 'NONE',  ( -1.000000000000000000, 0.000000000000000000, 0.000000000000000000 ) ) ;
#338 = DIRECTION ( 'NONE',  ( -1.419579739364189686E-48, 1.000000000000000000, -1.232595164407830946E-32 ) ) ;
#339 = VERTEX_POINT ( 'NONE', #378 ) ;
#340 = DIRECTION ( 'NONE',  ( 1.000000000000000000, 0.000000000000000000, -1.151699909553183292E-16 ) ) ;
#341 = LINE ( 'NONE', #947, #13 ) ;
#342 = CIRCLE ( 'NONE', #905, 3.000000000000002665 ) ;
#343 = DIRECTION ( 'NONE',  ( -1.000000000000000000, 2.176641021977982493E-17, 1.151699909553183292E-16 ) ) ;
#344 = VECTOR ( 'NONE', #407, 1000.000000000000114 ) ;
#345 = ORIENTED_EDGE ( 'NONE', *, *, #799, .F. ) ;
#346 = CIRCLE ( 'NONE', #242, 0.9500000000000063949 ) ;
#347 = CARTESIAN_POINT ( 'NONE',  ( -41.27183915600689801, 2.050000000000002043, 4.753277342306664279E-15 ) ) ;
#348 = CARTESIAN_POINT ( 'NONE',  ( -46.27183915600690511, 3.000000000000002665, -1.999999999999994893 ) ) ;
#349 = CARTESIAN_POINT ( 'NONE',  ( -41.27183915600689801, 5.000000000000004441, 2.000000000000000444 ) ) ;
#350 = ORIENTED_EDGE ( 'NONE', *, *, #432, .F. ) ;
#351 = CARTESIAN_POINT ( 'NONE',  ( 78.27406610312552004, 107.0000000000000000, -9.014124624680264208E-15 ) ) ;
#352 = ORIENTED_EDGE ( 'NONE', *, *, #499, .F. ) ;
#353 = DIRECTION ( 'NONE',  ( 0.000000000000000000, 1.000000000000000000, 0.000000000000000000 ) ) ;
#354 = LINE ( 'NONE', #686, #86 ) ;
#355 = ORIENTED_EDGE ( 'NONE', *, *, #990, .T. ) ;
#356 = CARTESIAN_POINT ( 'NONE',  ( 78.27406610312552004, 5.000000000000004441, 3.999999999999991562 ) ) ;
#357 = DIRECTION ( 'NONE',  ( -1.151699909553183045E-16, 0.000000000000000000, -1.000000000000000000 ) ) ;
#358 = DIRECTION ( 'NONE',  ( 1.000000000000000000, 0.000000000000000000, -1.151699909553183045E-16 ) ) ;
#359 = LINE ( 'NONE', #924, #490 ) ;
#360 = CARTESIAN_POINT ( 'NONE',  ( -42.22183915600690085, 5.000000000000004441, 4.862688833714217023E-15 ) ) ;
#361 = ORIENTED_EDGE ( 'NONE', *, *, #832, .F. ) ;
#362 = CARTESIAN_POINT ( 'NONE',  ( -43.87183915600690653, 5.000000000000004441, 4.000000000000005329 ) ) ;
#363 = COLOUR_RGB ( '',0.7921568627450980005, 0.8196078431372548767, 0.9333333333333333481 ) ;
#364 = VECTOR ( 'NONE', #518, 1000.000000000000000 ) ;
#365 = LINE ( 'NONE', #877, #1085 ) ;
#366 = CARTESIAN_POINT ( 'NONE',  ( 78.27406610312552004, 4.049999999999998934, -9.014823485132958744E-15 ) ) ;
#367 = VECTOR ( 'NONE', #842, 1000.000000000000000 ) ;
#368 = EDGE_CURVE ( 'NONE', #1070, #204, #404, .T. ) ;
#369 = CARTESIAN_POINT ( 'NONE',  ( 80.27406610312552004, 112.0000000000000000, -2.000000000000009326 ) ) ;
#370 = DIRECTION ( 'NONE',  ( 1.000000000000000000, -2.176641021977982493E-17, 0.000000000000000000 ) ) ;
#371 = ADVANCED_FACE ( 'NONE', ( #384 ), #621, .T. ) ;
#372 = ORIENTED_EDGE ( 'NONE', *, *, #368, .T. ) ;
#373 = LINE ( 'NONE', #771, #71 ) ;
#374 = ADVANCED_FACE ( 'NONE', ( #43 ), #712, .F. ) ;
#375 = CARTESIAN_POINT ( 'NONE',  ( -41.27183915600689801, 107.0000000000000000, 4.753548899991133503E-15 ) ) ;
#376 = ORIENTED_EDGE ( 'NONE', *, *, #306, .T. ) ;
#377 = FACE_OUTER_BOUND ( 'NONE', #821, .T. ) ;
#378 = CARTESIAN_POINT ( 'NONE',  ( -46.27183915600690511, 3.000000000000002665, 5.329127297083256590E-15 ) ) ;
#379 = ORIENTED_EDGE ( 'NONE', *, *, #110, .T. ) ;
#380 = EDGE_LOOP ( 'NONE', ( #510, #320, #418, #916 ) ) ;
#381 = FACE_OUTER_BOUND ( 'NONE', #468, .T. ) ;
#382 = ORIENTED_EDGE ( 'NONE', *, *, #885, .F. ) ;
#383 = LINE ( 'NONE', #34, #196 ) ;
#384 = FACE_OUTER_BOUND ( 'NONE', #650, .T. ) ;
#385 = EDGE_CURVE ( 'NONE', #860, #50, #922, .T. ) ;
#386 = ORIENTED_EDGE ( 'NONE', *, *, #308, .F. ) ;
#387 = ADVANCED_FACE ( 'NONE', ( #772 ), #276, .F. ) ;
#388 = LINE ( 'NONE', #721, #506 ) ;
#389 = EDGE_CURVE ( 'NONE', #694, #463, #365, .T. ) ;
#390 = AXIS2_PLACEMENT_3D ( 'NONE', #934, #152, #485 ) ;
#391 = CARTESIAN_POINT ( 'NONE',  ( 79.22406610312553710, -6.205515055989619259E-62, 3.999999999999990674 ) ) ;
#392 = APPLICATION_CONTEXT ( 'automotive_design' ) ;
#393 = AXIS2_PLACEMENT_3D ( 'NONE', #83, #419, #1086 ) ;
#394 = ORIENTED_EDGE ( 'NONE', *, *, #474, .T. ) ;
#395 = EDGE_CURVE ( 'NONE', #653, #537, #610, .T. ) ;
#396 = CARTESIAN_POINT ( 'NONE',  ( 78.27406610312552004, 107.0000000000000000, 1.999999999999991784 ) ) ;
#397 = CARTESIAN_POINT ( 'NONE',  ( -42.22183915600690085, -2.515282029323320511E-62, 4.000000000000005329 ) ) ;
#398 = FACE_OUTER_BOUND ( 'NONE', #250, .T. ) ;
#399 = ORIENTED_EDGE ( 'NONE', *, *, #471, .T. ) ;
#400 = ORIENTED_EDGE ( 'NONE', *, *, #1033, .T. ) ;
#401 = ORIENTED_EDGE ( 'NONE', *, *, #1081, .T. ) ;
#402 = DIRECTION ( 'NONE',  ( -1.151699909553183045E-16, 0.000000000000000000, -1.000000000000000000 ) ) ;
#403 = PRODUCT_DEFINITION_CONTEXT ( 'detailed design', #444, 'design' ) ;
#404 = CIRCLE ( 'NONE', #1010, 0.9499999999999995115 ) ;
#405 = EDGE_CURVE ( 'NONE', #326, #566, #542, .T. ) ;
#406 = CIRCLE ( 'NONE', #526, 3.000000000000002665 ) ;
#407 = DIRECTION ( 'NONE',  ( 0.000000000000000000, -0.1723803317522461798, -0.9850304671557045255 ) ) ;
#408 = CIRCLE ( 'NONE', #984, 0.9499999999999995115 ) ;
#409 = ORIENTED_EDGE ( 'NONE', *, *, #606, .T. ) ;
#410 = VECTOR ( 'NONE', #951, 1000.000000000000000 ) ;
#411 = ADVANCED_FACE ( 'NONE', ( #702 ), #1042, .T. ) ;
#412 = VERTEX_POINT ( 'NONE', #263 ) ;
#413 = ORIENTED_EDGE ( 'NONE', *, *, #902, .T. ) ;
#414 = SURFACE_SIDE_STYLE ('',( #824 ) ) ;
#415 = DIRECTION ( 'NONE',  ( -1.000000000000000000, 0.000000000000000000, 1.151699909553182552E-16 ) ) ;
#416 = ORIENTED_EDGE ( 'NONE', *, *, #452, .T. ) ;
#417 = LINE ( 'NONE', #143, #312 ) ;
#418 = ORIENTED_EDGE ( 'NONE', *, *, #845, .F. ) ;
#419 = DIRECTION ( 'NONE',  ( -1.151699909553183292E-16, -1.232595164407830946E-32, -1.000000000000000000 ) ) ;
#420 = ADVANCED_FACE ( 'NONE', ( #133 ), #960, .F. ) ;
#421 = AXIS2_PLACEMENT_3D ( 'NONE', #289, #186, #624 ) ;
#422 = FILL_AREA_STYLE_COLOUR ( '', #363 ) ;
#423 = VECTOR ( 'NONE', #678, 1000.000000000000000 ) ;
#424 = ORIENTED_EDGE ( 'NONE', *, *, #734, .F. ) ;
#425 = LINE ( 'NONE', #907, #129 ) ;
#426 = CARTESIAN_POINT ( 'NONE',  ( 80.27406610312552004, 0.000000000000000000, -9.245163467043595353E-15 ) ) ;
#427 = CARTESIAN_POINT ( 'NONE',  ( -41.27183915600689801, 107.0000000000000000, 4.753548899991133503E-15 ) ) ;
#428 = ORIENTED_EDGE ( 'NONE', *, *, #288, .T. ) ;
#429 = CARTESIAN_POINT ( 'NONE',  ( 78.27406610312547741, 109.9500000000000028, 3.999999999999991562 ) ) ;
#430 = CARTESIAN_POINT ( 'NONE',  ( 79.22406610312553710, 5.000000000000004441, -9.124234976540511488E-15 ) ) ;
#431 = DIRECTION ( 'NONE',  ( -1.000000000000000000, 0.000000000000000000, 1.445602896647337931E-16 ) ) ;
#432 = EDGE_CURVE ( 'NONE', #456, #726, #813, .T. ) ;
#433 = ORIENTED_EDGE ( 'NONE', *, *, #1018, .F. ) ;
#434 = CARTESIAN_POINT ( 'NONE',  ( -41.27183915600689801, 2.050000000000002043, 1.999999999999996225 ) ) ;
#435 = DIRECTION ( 'NONE',  ( 1.000000000000000000, 0.000000000000000000, -1.151699909553183292E-16 ) ) ;
#436 = AXIS2_PLACEMENT_3D ( 'NONE', #476, #1002, #661 ) ;
#437 = CARTESIAN_POINT ( 'NONE',  ( -44.22183915600690085, 107.0000000000000000, 2.000000000000002220 ) ) ;
#438 = VECTOR ( 'NONE', #755, 1000.000000000000000 ) ;
#439 = ORIENTED_EDGE ( 'NONE', *, *, #567, .F. ) ;
#440 = VECTOR ( 'NONE', #765, 1000.000000000000000 ) ;
#441 = CARTESIAN_POINT ( 'NONE',  ( 81.22406610312553710, -6.266286689562481971E-62, -9.354574958451148097E-15 ) ) ;
#442 = VERTEX_POINT ( 'NONE', #732 ) ;
#443 = CARTESIAN_POINT ( 'NONE',  ( -41.27183915600689801, 107.9500000000000028, 4.753277342306662701E-15 ) ) ;
#444 = APPLICATION_CONTEXT ( 'automotive_design' ) ;
#445 = LINE ( 'NONE', #666, #69 ) ;
#446 = ORIENTED_EDGE ( 'NONE', *, *, #596, .F. ) ;
#447 = LINE ( 'NONE', #103, #410 ) ;
#448 = ORIENTED_EDGE ( 'NONE', *, *, #828, .F. ) ;
#449 = LINE ( 'NONE', #940, #364 ) ;
#450 = ORIENTED_EDGE ( 'NONE', *, *, #237, .T. ) ;
#451 = CARTESIAN_POINT ( 'NONE',  ( 4.606799638212732180E-16, 2.050000000000002043, 4.000000000000000000 ) ) ;
#452 = EDGE_CURVE ( 'NONE', #985, #463, #275, .T. ) ;
#453 = ORIENTED_EDGE ( 'NONE', *, *, #148, .T. ) ;
#454 = DIRECTION ( 'NONE',  ( 1.151699909553183045E-16, -0.000000000000000000, 1.000000000000000000 ) ) ;
#455 = FACE_OUTER_BOUND ( 'NONE', #335, .T. ) ;
#456 = VERTEX_POINT ( 'NONE', #74 ) ;
#457 = DIRECTION ( 'NONE',  ( -1.000000000000000000, 0.000000000000000000, 0.000000000000000000 ) ) ;
#458 = VECTOR ( 'NONE', #601, 1000.000000000000000 ) ;
#459 = ORIENTED_EDGE ( 'NONE', *, *, #804, .F. ) ;
#460 = VECTOR ( 'NONE', #805, 1000.000000000000000 ) ;
#461 = CARTESIAN_POINT ( 'NONE',  ( -3.548949348410474798E-46, -3.798227098303919499E-62, -3.081487911019577365E-30 ) ) ;
#462 = DIRECTION ( 'NONE',  ( -1.151699909553183292E-16, -1.232595164407830946E-32, -1.000000000000000000 ) ) ;
#463 = VERTEX_POINT ( 'NONE', #426 ) ;
#464 = CARTESIAN_POINT ( 'NONE',  ( -41.27183915600689801, 2.050000000000002043, 2.000000000000003109 ) ) ;
#465 = DIRECTION ( 'NONE',  ( 1.419579739364189686E-48, -1.000000000000000000, 1.232595164407830946E-32 ) ) ;
#466 = DIRECTION ( 'NONE',  ( 1.151699909553183045E-16, 0.000000000000000000, 1.000000000000000000 ) ) ;
#467 = DIRECTION ( 'NONE',  ( -1.000000000000000000, 0.000000000000000000, 1.151699909553183045E-16 ) ) ;
#468 = EDGE_LOOP ( 'NONE', ( #869, #874, #798, #855 ) ) ;
#469 = ADVANCED_FACE ( 'NONE', ( #1005 ), #749, .F. ) ;
#470 = CARTESIAN_POINT ( 'NONE',  ( -41.27183915600689801, 109.9500000000000028, 2.000000000000003109 ) ) ;
#471 = EDGE_CURVE ( 'NONE', #778, #978, #115, .T. ) ;
#472 = CARTESIAN_POINT ( 'NONE',  ( 83.27406610312553426, 3.000000000000003109, -2.000000000000009770 ) ) ;
#473 = CARTESIAN_POINT ( 'NONE',  ( 78.27406610312552004, 2.050000000000002043, 3.999999999999991562 ) ) ;
#474 = EDGE_CURVE ( 'NONE', #191, #6, #28, .T. ) ;
#475 = EDGE_LOOP ( 'NONE', ( #897, #361, #806, #746 ) ) ;
#476 = CARTESIAN_POINT ( 'NONE',  ( 78.27406610312552004, 107.0000000000000000, 3.999999999999991562 ) ) ;
#477 = AXIS2_PLACEMENT_3D ( 'NONE', #349, #679, #180 ) ;
#478 = DIRECTION ( 'NONE',  ( -1.151699909553183292E-16, -1.232595164407830946E-32, -1.000000000000000000 ) ) ;
#479 = AXIS2_PLACEMENT_3D ( 'NONE', #861, #132, #457 ) ;
#480 = ORIENTED_EDGE ( 'NONE', *, *, #954, .T. ) ;
#481 = EDGE_LOOP ( 'NONE', ( #106, #355, #841, #199, #1075, #255, #640, #752 ) ) ;
#482 = EDGE_LOOP ( 'NONE', ( #500, #713, #881, #895 ) ) ;
#483 = ADVANCED_FACE ( 'NONE', ( #531 ), #270, .T. ) ;
#484 = EDGE_CURVE ( 'NONE', #978, #442, #231, .T. ) ;
#485 = DIRECTION ( 'NONE',  ( -1.000000000000000000, 0.000000000000000000, 1.151699909553183292E-16 ) ) ;
#486 = ORIENTED_EDGE ( 'NONE', *, *, #288, .F. ) ;
#487 = EDGE_CURVE ( 'NONE', #498, #120, #935, .T. ) ;
#488 = DIRECTION ( 'NONE',  ( 1.000000000000000000, 0.000000000000000000, -1.151699909553183292E-16 ) ) ;
#489 = ORIENTED_EDGE ( 'NONE', *, *, #1009, .T. ) ;
#490 = VECTOR ( 'NONE', #691, 1000.000000000000000 ) ;
#491 = AXIS2_PLACEMENT_3D ( 'NONE', #1038, #955, #889 ) ;
#492 = DIRECTION ( 'NONE',  ( -1.000000000000000000, 0.000000000000000000, 1.151699909553182552E-16 ) ) ;
#493 =( GEOMETRIC_REPRESENTATION_CONTEXT ( 3 ) GLOBAL_UNCERTAINTY_ASSIGNED_CONTEXT ( ( #753 ) ) GLOBAL_UNIT_ASSIGNED_CONTEXT ( ( #1060, #887, #142 ) ) REPRESENTATION_CONTEXT ( 'NONE', 'WORKASPACE' ) );
#494 = ORIENTED_EDGE ( 'NONE', *, *, #570, .T. ) ;
#495 = CYLINDRICAL_SURFACE ( 'NONE', #761, 2.950000000000001066 ) ;
#496 = LINE ( 'NONE', #663, #367 ) ;
#497 = ADVANCED_FACE ( 'NONE', ( #930 ), #1019, .F. ) ;
#498 = VERTEX_POINT ( 'NONE', #1024 ) ;
#499 = EDGE_CURVE ( 'NONE', #463, #911, #449, .T. ) ;
#500 = ORIENTED_EDGE ( 'NONE', *, *, #1018, .T. ) ;
#501 = CARTESIAN_POINT ( 'NONE',  ( 81.22406610312553710, 107.0000000000000000, 1.999999999999991784 ) ) ;
#502 = CARTESIAN_POINT ( 'NONE',  ( -41.27183915600689801, 107.0000000000000000, 2.000000000000003109 ) ) ;
#503 = ORIENTED_EDGE ( 'NONE', *, *, #952, .F. ) ;
#504 = LINE ( 'NONE', #754, #658 ) ;
#505 = DIRECTION ( 'NONE',  ( -1.000000000000000000, 2.176641021977982493E-17, 1.151699909553183292E-16 ) ) ;
#506 = VECTOR ( 'NONE', #76, 1000.000000000000000 ) ;
#507 = VECTOR ( 'NONE', #514, 1000.000000000000000 ) ;
#508 = CARTESIAN_POINT ( 'NONE',  ( 80.27406610312552004, 109.0000000000000000, -2.000000000000009326 ) ) ;
#509 = CIRCLE ( 'NONE', #176, 0.9500000000000063949 ) ;
#510 = ORIENTED_EDGE ( 'NONE', *, *, #499, .T. ) ;
#511 = DIRECTION ( 'NONE',  ( -0.1723803317522498435, 0.000000000000000000, 0.9850304671557039704 ) ) ;
#512 = EDGE_CURVE ( 'NONE', #204, #537, #523, .T. ) ;
#513 = CARTESIAN_POINT ( 'NONE',  ( 79.22406610312553710, -6.205515055989619259E-62, 3.999999999999990674 ) ) ;
#514 = DIRECTION ( 'NONE',  ( 1.151699909553183045E-16, -0.000000000000000000, 1.000000000000000000 ) ) ;
#515 = ORIENTED_EDGE ( 'NONE', *, *, #724, .F. ) ;
#516 = CARTESIAN_POINT ( 'NONE',  ( -43.27183915600689801, 112.0000000000000000, 4.983941861644303195E-15 ) ) ;
#517 = EDGE_CURVE ( 'NONE', #537, #967, #187, .T. ) ;
#518 = DIRECTION ( 'NONE',  ( -1.000000000000000000, 0.000000000000000000, 1.151699909553183292E-16 ) ) ;
#519 = EDGE_CURVE ( 'NONE', #323, #683, #359, .T. ) ;
#520 = DIRECTION ( 'NONE',  ( -1.151699909553183292E-16, -1.232595164407830946E-32, -1.000000000000000000 ) ) ;
#521 = ORIENTED_EDGE ( 'NONE', *, *, #405, .F. ) ;
#522 = DIRECTION ( 'NONE',  ( 1.151699909553183045E-16, -0.000000000000000000, 1.000000000000000000 ) ) ;
#523 = LINE ( 'NONE', #774, #590 ) ;
#524 = STYLED_ITEM ( 'NONE', ( #226 ), #79 ) ;
#525 = DIRECTION ( 'NONE',  ( 1.419579739364189686E-48, -1.000000000000000000, 1.232595164407830946E-32 ) ) ;
#526 = AXIS2_PLACEMENT_3D ( 'NONE', #260, #598, #931 ) ;
#527 = ORIENTED_EDGE ( 'NONE', *, *, #929, .F. ) ;
#528 = CIRCLE ( 'NONE', #479, 2.950000000000008171 ) ;
#529 = CARTESIAN_POINT ( 'NONE',  ( 78.27406610312547741, 107.9500000000000028, 3.999999999999991562 ) ) ;
#530 = CARTESIAN_POINT ( 'NONE',  ( 79.22406610312553710, -6.205515055989619259E-62, -9.124234976540511488E-15 ) ) ;
#531 = FACE_OUTER_BOUND ( 'NONE', #776, .T. ) ;
#532 = FACE_OUTER_BOUND ( 'NONE', #617, .T. ) ;
#533 = EDGE_CURVE ( 'NONE', #267, #599, #341, .T. ) ;
#534 = ORIENTED_EDGE ( 'NONE', *, *, #971, .T. ) ;
#535 = FACE_OUTER_BOUND ( 'NONE', #243, .T. ) ;
#536 = EDGE_CURVE ( 'NONE', #995, #339, #1012, .T. ) ;
#537 = VERTEX_POINT ( 'NONE', #443 ) ;
#538 = DIRECTION ( 'NONE',  ( -1.151699909553183045E-16, 0.000000000000000000, -1.000000000000000000 ) ) ;
#539 = PLANE ( 'NONE',  #801 ) ;
#540 = ORIENTED_EDGE ( 'NONE', *, *, #179, .F. ) ;
#541 = DIRECTION ( 'NONE',  ( -1.000000000000000000, 0.000000000000000000, 1.151699909553183292E-16 ) ) ;
#542 = LINE ( 'NONE', #1017, #174 ) ;
#543 = DIRECTION ( 'NONE',  ( -1.151699909553183045E-16, 0.000000000000000000, -1.000000000000000000 ) ) ;
#544 = DIRECTION ( 'NONE',  ( 1.000000000000000000, 0.000000000000000000, -1.445602896647337931E-16 ) ) ;
#545 = LINE ( 'NONE', #203, #35 ) ;
#546 = ORIENTED_EDGE ( 'NONE', *, *, #814, .F. ) ;
#547 = PLANE ( 'NONE',  #1087 ) ;
#548 = VECTOR ( 'NONE', #588, 999.9999999999998863 ) ;
#549 = DIRECTION ( 'NONE',  ( 1.151699909553183045E-16, -0.000000000000000000, 1.000000000000000000 ) ) ;
#550 = CARTESIAN_POINT ( 'NONE',  ( -41.27183915600689801, 109.6000000000000085, 4.000000000000004441 ) ) ;
#551 = CARTESIAN_POINT ( 'NONE',  ( -44.22183915600690085, 107.0000000000000000, 2.000000000000002220 ) ) ;
#552 = ORIENTED_EDGE ( 'NONE', *, *, #748, .T. ) ;
#553 = CARTESIAN_POINT ( 'NONE',  ( -42.22183915600690085, 107.0000000000000000, 4.000000000000005329 ) ) ;
#554 = CARTESIAN_POINT ( 'NONE',  ( -44.22183915600690085, 5.000000000000004441, 5.093028815624853632E-15 ) ) ;
#555 = PLANE ( 'NONE',  #819 ) ;
#556 = ORIENTED_EDGE ( 'NONE', *, *, #885, .T. ) ;
#557 = CARTESIAN_POINT ( 'NONE',  ( 81.22406610312553710, 5.000000000000004441, -9.354574958451148097E-15 ) ) ;
#558 = CARTESIAN_POINT ( 'NONE',  ( 78.27406610312552004, 107.0000000000000000, 3.999999999999991562 ) ) ;
#559 = DIRECTION ( 'NONE',  ( -1.000000000000000000, 0.000000000000000000, 0.000000000000000000 ) ) ;
#560 = ORIENTED_EDGE ( 'NONE', *, *, #954, .F. ) ;
#561 = DIRECTION ( 'NONE',  ( 1.151699909553183292E-16, 1.232595164407830946E-32, 1.000000000000000000 ) ) ;
#562 = AXIS2_PLACEMENT_3D ( 'NONE', #249, #327, #992 ) ;
#563 = AXIS2_PLACEMENT_3D ( 'NONE', #508, #520, #431 ) ;
#564 = LINE ( 'NONE', #251, #548 ) ;
#565 = AXIS2_PLACEMENT_3D ( 'NONE', #164, #1080, #740 ) ;
#566 = VERTEX_POINT ( 'NONE', #430 ) ;
#567 = EDGE_CURVE ( 'NONE', #147, #860, #178, .T. ) ;
#568 = ORIENTED_EDGE ( 'NONE', *, *, #332, .T. ) ;
#569 = EDGE_CURVE ( 'NONE', #727, #811, #297, .T. ) ;
#570 = EDGE_CURVE ( 'NONE', #937, #326, #89, .T. ) ;
#571 = EDGE_LOOP ( 'NONE', ( #138, #886, #169, #329 ) ) ;
#572 = CARTESIAN_POINT ( 'NONE',  ( -44.22183915600690085, 5.000000000000004441, 2.000000000000000444 ) ) ;
#573 = ORIENTED_EDGE ( 'NONE', *, *, #643, .T. ) ;
#574 = ORIENTED_EDGE ( 'NONE', *, *, #306, .F. ) ;
#575 = DIRECTION ( 'NONE',  ( -1.000000000000000000, 0.000000000000000000, 1.151699909553183045E-16 ) ) ;
#576 = PRODUCT_DEFINITION ( 'UNKNOWN', '', #56, #403 ) ;
#577 = VECTOR ( 'NONE', #435, 1000.000000000000000 ) ;
#578 = PRODUCT_RELATED_PRODUCT_CATEGORY ( 'part', '', ( #956 ) ) ;
#579 = CIRCLE ( 'NONE', #942, 0.9499999999999995115 ) ;
#580 = AXIS2_PLACEMENT_3D ( 'NONE', #800, #561, #51 ) ;
#581 = ORIENTED_EDGE ( 'NONE', *, *, #1072, .F. ) ;
#582 = DIRECTION ( 'NONE',  ( -1.000000000000000000, 0.000000000000000000, 1.445602896647337931E-16 ) ) ;
#583 = ORIENTED_EDGE ( 'NONE', *, *, #173, .T. ) ;
#584 = LINE ( 'NONE', #1001, #833 ) ;
#585 = CARTESIAN_POINT ( 'NONE',  ( -41.27183915600689801, 107.0000000000000000, 4.000000000000004441 ) ) ;
#586 = DIRECTION ( 'NONE',  ( -1.000000000000000000, 0.000000000000000000, 0.000000000000000000 ) ) ;
#587 = ORIENTED_EDGE ( 'NONE', *, *, #405, .T. ) ;
#588 = DIRECTION ( 'NONE',  ( -0.1723803317522495382, 0.000000000000000000, -0.9850304671557040814 ) ) ;
#589 = DIRECTION ( 'NONE',  ( 0.000000000000000000, 1.000000000000000000, 0.000000000000000000 ) ) ;
#590 = VECTOR ( 'NONE', #858, 1000.000000000000000 ) ;
#591 = DIRECTION ( 'NONE',  ( -1.151699909553183045E-16, 0.000000000000000000, -1.000000000000000000 ) ) ;
#592 = ORIENTED_EDGE ( 'NONE', *, *, #484, .F. ) ;
#593 = EDGE_CURVE ( 'NONE', #442, #456, #100, .T. ) ;
#594 = AXIS2_PLACEMENT_3D ( 'NONE', #351, #681, #192 ) ;
#595 = CARTESIAN_POINT ( 'NONE',  ( -2.303399819106366090E-16, 0.000000000000000000, -2.000000000000000000 ) ) ;
#596 = EDGE_CURVE ( 'NONE', #1037, #1082, #760, .T. ) ;
#597 = CARTESIAN_POINT ( 'NONE',  ( 4.606799638212732180E-16, 109.9500000000000028, 4.000000000000000000 ) ) ;
#598 = DIRECTION ( 'NONE',  ( -1.151699909553183292E-16, -1.232595164407830946E-32, -1.000000000000000000 ) ) ;
#599 = VERTEX_POINT ( 'NONE', #793 ) ;
#600 = CARTESIAN_POINT ( 'NONE',  ( 78.27406610312552004, 5.000000000000004441, 1.999999999999989120 ) ) ;
#601 = DIRECTION ( 'NONE',  ( 1.419579739364189686E-48, -1.000000000000000000, 1.232595164407830946E-32 ) ) ;
#602 = PLANE ( 'NONE',  #893 ) ;
#603 = ORIENTED_EDGE ( 'NONE', *, *, #157, .F. ) ;
#604 = CARTESIAN_POINT ( 'NONE',  ( -41.27183915600689090, 4.050000000000001599, 4.000000000000004441 ) ) ;
#605 = LINE ( 'NONE', #530, #816 ) ;
#606 = EDGE_CURVE ( 'NONE', #995, #674, #797, .T. ) ;
#607 = DIRECTION ( 'NONE',  ( 1.419579739364189686E-48, -1.000000000000000000, 1.232595164407830946E-32 ) ) ;
#608 = FACE_OUTER_BOUND ( 'NONE', #72, .T. ) ;
#609 = ADVANCED_FACE ( 'NONE', ( #698, #377 ), #555, .F. ) ;
#610 = CIRCLE ( 'NONE', #146, 0.9499999999999995115 ) ;
#611 = ORIENTED_EDGE ( 'NONE', *, *, #432, .T. ) ;
#612 = AXIS2_PLACEMENT_3D ( 'NONE', #121, #704, #559 ) ;
#613 = DIRECTION ( 'NONE',  ( -1.151699909553183292E-16, -1.232595164407830946E-32, -1.000000000000000000 ) ) ;
#614 = ORIENTED_EDGE ( 'NONE', *, *, #1081, .F. ) ;
#615 = CARTESIAN_POINT ( 'NONE',  ( -5.081385677054118288E-46, 107.9500000000000028, -4.412074390997830731E-30 ) ) ;
#616 = CARTESIAN_POINT ( 'NONE',  ( 83.27406610312553426, -6.328577613974665732E-62, -2.000000000000009770 ) ) ;
#617 = EDGE_LOOP ( 'NONE', ( #446, #534, #55, #67 ) ) ;
#618 = DIRECTION ( 'NONE',  ( -1.000000000000000000, 0.000000000000000000, 1.445602896647337931E-16 ) ) ;
#619 = LINE ( 'NONE', #208, #830 ) ;
#620 = CYLINDRICAL_SURFACE ( 'NONE', #491, 0.9500000000000063949 ) ;
#621 = PLANE ( 'NONE',  #54 ) ;
#622 = ORIENTED_EDGE ( 'NONE', *, *, #517, .T. ) ;
#623 = CARTESIAN_POINT ( 'NONE',  ( -44.22183915600690085, 5.000000000000004441, 4.000000000000005329 ) ) ;
#624 = DIRECTION ( 'NONE',  ( 1.000000000000000000, 0.000000000000000000, -1.151699909553183292E-16 ) ) ;
#625 = ORIENTED_EDGE ( 'NONE', *, *, #652, .F. ) ;
#626 = EDGE_CURVE ( 'NONE', #102, #70, #140, .T. ) ;
#627 = DIRECTION ( 'NONE',  ( 1.151699909553183045E-16, -0.000000000000000000, 1.000000000000000000 ) ) ;
#628 = CARTESIAN_POINT ( 'NONE',  ( 2.303399819106363625E-16, 109.9500000000000028, 1.999999999999998224 ) ) ;
#629 = VECTOR ( 'NONE', #1014, 1000.000000000000000 ) ;
#630 = ORIENTED_EDGE ( 'NONE', *, *, #395, .F. ) ;
#631 = APPLICATION_PROTOCOL_DEFINITION ( 'draft international standard', 'automotive_design', 1998, #392 ) ;
#632 = VECTOR ( 'NONE', #183, 1000.000000000000000 ) ;
#633 = VECTOR ( 'NONE', #921, 1000.000000000000000 ) ;
#634 = VERTEX_POINT ( 'NONE', #786 ) ;
#635 = CARTESIAN_POINT ( 'NONE',  ( 4.606799638212732180E-16, -3.798227098303919499E-62, 4.000000000000000000 ) ) ;
#636 = FACE_OUTER_BOUND ( 'NONE', #767, .T. ) ;
#637 = ORIENTED_EDGE ( 'NONE', *, *, #1050, .T. ) ;
#638 = DIRECTION ( 'NONE',  ( -1.151699909553183292E-16, -1.232595164407830946E-32, -1.000000000000000000 ) ) ;
#639 = DIRECTION ( 'NONE',  ( 1.000000000000000000, 0.000000000000000000, -1.445602896647337931E-16 ) ) ;
#640 = ORIENTED_EDGE ( 'NONE', *, *, #264, .T. ) ;
#641 = LINE ( 'NONE', #1047, #316 ) ;
#642 = DIRECTION ( 'NONE',  ( -1.000000000000000000, 0.000000000000000000, 1.151699909553183292E-16 ) ) ;
#643 = EDGE_CURVE ( 'NONE', #634, #163, #383, .T. ) ;
#644 = ORIENTED_EDGE ( 'NONE', *, *, #804, .T. ) ;
#645 = CARTESIAN_POINT ( 'NONE',  ( 78.27406610312547741, 109.9500000000000028, 1.999999999999996225 ) ) ;
#646 = ADVANCED_FACE ( 'NONE', ( #870 ), #73, .T. ) ;
#647 = VECTOR ( 'NONE', #101, 1000.000000000000000 ) ;
#648 = AXIS2_PLACEMENT_3D ( 'NONE', #209, #879, #466 ) ;
#649 = ORIENTED_EDGE ( 'NONE', *, *, #913, .F. ) ;
#650 = EDGE_LOOP ( 'NONE', ( #159, #552, #82, #719, #644, #1023, #480, #409 ) ) ;
#651 = DIRECTION ( 'NONE',  ( -1.151699909553183045E-16, 0.000000000000000000, -1.000000000000000000 ) ) ;
#652 = EDGE_CURVE ( 'NONE', #1048, #118, #42, .T. ) ;
#653 = VERTEX_POINT ( 'NONE', #309 ) ;
#654 = CYLINDRICAL_SURFACE ( 'NONE', #33, 2.950000000000008171 ) ;
#655 = DIRECTION ( 'NONE',  ( 0.000000000000000000, -0.000000000000000000, 1.000000000000000000 ) ) ;
#656 = VECTOR ( 'NONE', #246, 999.9999999999998863 ) ;
#657 = VECTOR ( 'NONE', #265, 1000.000000000000000 ) ;
#658 = VECTOR ( 'NONE', #230, 1000.000000000000000 ) ;
#659 = DIRECTION ( 'NONE',  ( -1.000000000000000000, 0.000000000000000000, 0.000000000000000000 ) ) ;
#660 = FACE_OUTER_BOUND ( 'NONE', #261, .T. ) ;
#661 = DIRECTION ( 'NONE',  ( -1.000000000000000000, 0.000000000000000000, 0.000000000000000000 ) ) ;
#662 = ORIENTED_EDGE ( 'NONE', *, *, #1072, .T. ) ;
#663 = CARTESIAN_POINT ( 'NONE',  ( 80.87406610312552857, 107.0000000000000000, 3.999999999999990674 ) ) ;
#664 = DIRECTION ( 'NONE',  ( 0.000000000000000000, -0.000000000000000000, 1.000000000000000000 ) ) ;
#665 = ADVANCED_FACE ( 'NONE', ( #293 ), #779, .T. ) ;
#666 = CARTESIAN_POINT ( 'NONE',  ( -41.27183915600689801, 2.050000000000002043, 4.000000000000004441 ) ) ;
#667 = ORIENTED_EDGE ( 'NONE', *, *, #97, .T. ) ;
#668 = DIRECTION ( 'NONE',  ( -1.000000000000000000, 0.000000000000000000, 1.151699909553182305E-16 ) ) ;
#669 = ADVANCED_FACE ( 'NONE', ( #284 ), #217, .T. ) ;
#670 = CARTESIAN_POINT ( 'NONE',  ( -44.22183915600690085, 107.0000000000000000, 4.000000000000005329 ) ) ;
#671 = AXIS2_PLACEMENT_3D ( 'NONE', #301, #37, #370 ) ;
#672 = AXIS2_PLACEMENT_3D ( 'NONE', #676, #866, #777 ) ;
#673 = CARTESIAN_POINT ( 'NONE',  ( 78.27406610312552004, 4.049999999999998934, 3.999999999999991562 ) ) ;
#674 = VERTEX_POINT ( 'NONE', #977 ) ;
#675 = VECTOR ( 'NONE', #783, 1000.000000000000000 ) ;
#676 = CARTESIAN_POINT ( 'NONE',  ( 78.27406610312552004, 107.0000000000000000, 3.999999999999991562 ) ) ;
#677 = DIRECTION ( 'NONE',  ( 1.000000000000000000, 0.000000000000000000, -1.151699909553183045E-16 ) ) ;
#678 = DIRECTION ( 'NONE',  ( -1.151699909553183045E-16, 0.000000000000000000, -1.000000000000000000 ) ) ;
#679 = DIRECTION ( 'NONE',  ( -0.000000000000000000, -0.000000000000000000, -1.000000000000000000 ) ) ;
#680 = EDGE_LOOP ( 'NONE', ( #290, #795, #919, #556 ) ) ;
#681 = DIRECTION ( 'NONE',  ( -1.151699909553183292E-16, -1.232595164407830946E-32, -1.000000000000000000 ) ) ;
#682 = ADVANCED_FACE ( 'NONE', ( #962 ), #620, .F. ) ;
#683 = VERTEX_POINT ( 'NONE', #550 ) ;
#684 = ADVANCED_FACE ( 'NONE', ( #127 ), #135, .T. ) ;
#685 = DIRECTION ( 'NONE',  ( 0.000000000000000000, -0.000000000000000000, 1.000000000000000000 ) ) ;
#686 = CARTESIAN_POINT ( 'NONE',  ( -42.22183915600690085, -2.515282029323320511E-62, 4.862688833714217023E-15 ) ) ;
#687 = VERTEX_POINT ( 'NONE', #884 ) ;
#688 = LINE ( 'NONE', #282, #762 ) ;
#689 = ADVANCED_FACE ( 'NONE', ( #1049, #144 ), #298, .F. ) ;
#690 = FACE_OUTER_BOUND ( 'NONE', #571, .T. ) ;
#691 = DIRECTION ( 'NONE',  ( -1.000000000000000000, 0.000000000000000000, 1.151699909553183292E-16 ) ) ;
#692 = CARTESIAN_POINT ( 'NONE',  ( 78.27406610312552004, 5.000000000000004441, 3.999999999999991562 ) ) ;
#693 = VECTOR ( 'NONE', #607, 1000.000000000000000 ) ;
#694 = VERTEX_POINT ( 'NONE', #970 ) ;
#695 = AXIS2_PLACEMENT_3D ( 'NONE', #595, #928, #655 ) ;
#696 = CARTESIAN_POINT ( 'NONE',  ( 83.27406610312553426, 3.000000000000003109, -9.590027559199389603E-15 ) ) ;
#697 = ORIENTED_EDGE ( 'NONE', *, *, #927, .F. ) ;
#698 = FACE_BOUND ( 'NONE', #481, .T. ) ;
#699 = CARTESIAN_POINT ( 'NONE',  ( -41.27183915600689801, 5.000000000000004441, 4.753548899991133503E-15 ) ) ;
#700 = ORIENTED_EDGE ( 'NONE', *, *, #652, .T. ) ;
#701 = CARTESIAN_POINT ( 'NONE',  ( -43.27183915600689801, 0.000000000000000000, 4.983941861644303195E-15 ) ) ;
#702 = FACE_OUTER_BOUND ( 'NONE', #707, .T. ) ;
#703 = ORIENTED_EDGE ( 'NONE', *, *, #999, .F. ) ;
#704 = DIRECTION ( 'NONE',  ( -0.000000000000000000, -0.000000000000000000, -1.000000000000000000 ) ) ;
#705 = DIRECTION ( 'NONE',  ( 1.151699909553183045E-16, 0.000000000000000000, 1.000000000000000000 ) ) ;
#706 = EDGE_CURVE ( 'NONE', #726, #147, #222, .T. ) ;
#707 = EDGE_LOOP ( 'NONE', ( #428, #764, #350, #141 ) ) ;
#708 = CARTESIAN_POINT ( 'NONE',  ( 0.000000000000000000, 0.000000000000000000, 0.000000000000000000 ) ) ;
#709 = ADVANCED_FACE ( 'NONE', ( #398 ), #53, .F. ) ;
#710 = ORIENTED_EDGE ( 'NONE', *, *, #902, .F. ) ;
#711 = CARTESIAN_POINT ( 'NONE',  ( -43.27183915600689801, 3.000000000000000000, -1.999999999999995337 ) ) ;
#712 = PLANE ( 'NONE',  #671 ) ;
#713 = ORIENTED_EDGE ( 'NONE', *, *, #626, .F. ) ;
#714 = DIRECTION ( 'NONE',  ( -0.000000000000000000, -0.000000000000000000, -1.000000000000000000 ) ) ;
#715 = VECTOR ( 'NONE', #29, 1000.000000000000000 ) ;
#716 = AXIS2_PLACEMENT_3D ( 'NONE', #200, #46, #618 ) ;
#717 = SURFACE_STYLE_USAGE ( .BOTH. , #414 ) ;
#718 = DIRECTION ( 'NONE',  ( 1.000000000000000000, 0.000000000000000000, -1.151699909553183045E-16 ) ) ;
#719 = ORIENTED_EDGE ( 'NONE', *, *, #487, .T. ) ;
#720 = CARTESIAN_POINT ( 'NONE',  ( 79.22406610312553710, 107.0000000000000000, 3.999999999999990674 ) ) ;
#721 = CARTESIAN_POINT ( 'NONE',  ( -42.22183915600690085, 107.0000000000000000, 4.000000000000005329 ) ) ;
#722 = EDGE_CURVE ( 'NONE', #1055, #991, #1058, .T. ) ;
#723 = DIRECTION ( 'NONE',  ( -1.419579739364189686E-48, 1.000000000000000000, -1.232595164407830946E-32 ) ) ;
#724 = EDGE_CURVE ( 'NONE', #118, #991, #182, .T. ) ;
#725 = ORIENTED_EDGE ( 'NONE', *, *, #1009, .F. ) ;
#726 = VERTEX_POINT ( 'NONE', #825 ) ;
#727 = VERTEX_POINT ( 'NONE', #168 ) ;
#728 = DIRECTION ( 'NONE',  ( 1.000000000000000000, 0.000000000000000000, 0.000000000000000000 ) ) ;
#729 = ORIENTED_EDGE ( 'NONE', *, *, #849, .F. ) ;
#730 = VECTOR ( 'NONE', #96, 1000.000000000000114 ) ;
#731 = AXIS2_PLACEMENT_3D ( 'NONE', #391, #718, #538 ) ;
#732 = CARTESIAN_POINT ( 'NONE',  ( -41.27183915600689801, 2.399999999999998135, 4.000000000000004441 ) ) ;
#733 = ORIENTED_EDGE ( 'NONE', *, *, #706, .F. ) ;
#734 = EDGE_CURVE ( 'NONE', #70, #687, #894, .T. ) ;
#735 = ORIENTED_EDGE ( 'NONE', *, *, #533, .F. ) ;
#736 = CARTESIAN_POINT ( 'NONE',  ( -41.27183915600689801, 5.000000000000004441, 4.000000000000004441 ) ) ;
#737 = DIRECTION ( 'NONE',  ( -1.000000000000000000, 0.000000000000000000, 0.000000000000000000 ) ) ;
#738 = ORIENTED_EDGE ( 'NONE', *, *, #989, .F. ) ;
#739 = DIRECTION ( 'NONE',  ( -1.151699909553183045E-16, 0.000000000000000000, -1.000000000000000000 ) ) ;
#740 = DIRECTION ( 'NONE',  ( 0.000000000000000000, 0.000000000000000000, -1.000000000000000000 ) ) ;
#741 = ADVANCED_BREP_SHAPE_REPRESENTATION ( 'Base', ( #79, #968 ), #493 ) ;
#742 = CIRCLE ( 'NONE', #873, 2.950000000000001066 ) ;
#743 = AXIS2_PLACEMENT_3D ( 'NONE', #711, #227, #639 ) ;
#744 = CIRCLE ( 'NONE', #835, 2.950000000000001066 ) ;
#745 =( NAMED_UNIT ( * ) PLANE_ANGLE_UNIT ( ) SI_UNIT ( $, .RADIAN. ) );
#746 = ORIENTED_EDGE ( 'NONE', *, *, #1050, .F. ) ;
#747 = CYLINDRICAL_SURFACE ( 'NONE', #162, 2.950000000000001066 ) ;
#748 = EDGE_CURVE ( 'NONE', #153, #102, #425, .T. ) ;
#749 = CYLINDRICAL_SURFACE ( 'NONE', #1030, 0.9500000000000063949 ) ;
#750 = ADVANCED_FACE ( 'NONE', ( #660 ), #747, .T. ) ;
#751 = CARTESIAN_POINT ( 'NONE',  ( -43.27183915600689801, 112.0000000000000000, -1.999999999999995337 ) ) ;
#752 = ORIENTED_EDGE ( 'NONE', *, *, #724, .T. ) ;
#753 = UNCERTAINTY_MEASURE_WITH_UNIT (LENGTH_MEASURE( 1.000000000000000082E-05 ), #1060, 'distance_accuracy_value', 'NONE');
#754 = CARTESIAN_POINT ( 'NONE',  ( -43.27183915600689801, 0.000000000000000000, -1.999999999999995337 ) ) ;
#755 = DIRECTION ( 'NONE',  ( 1.419579739364189686E-48, -1.000000000000000000, 1.232595164407830946E-32 ) ) ;
#756 = LINE ( 'NONE', #10, #831 ) ;
#757 = ORIENTED_EDGE ( 'NONE', *, *, #519, .T. ) ;
#758 = DIRECTION ( 'NONE',  ( -1.419579739364189686E-48, 1.000000000000000000, -1.232595164407830946E-32 ) ) ;
#759 = AXIS2_PLACEMENT_3D ( 'NONE', #953, #358, #32 ) ;
#760 = LINE ( 'NONE', #16, #423 ) ;
#761 = AXIS2_PLACEMENT_3D ( 'NONE', #736, #739, #17 ) ;
#762 = VECTOR ( 'NONE', #124, 1000.000000000000000 ) ;
#763 = CARTESIAN_POINT ( 'NONE',  ( -41.27183915600689801, 107.9500000000000028, 4.000000000000004441 ) ) ;
#764 = ORIENTED_EDGE ( 'NONE', *, *, #898, .F. ) ;
#765 = DIRECTION ( 'NONE',  ( -1.151699909553183045E-16, 0.000000000000000000, -1.000000000000000000 ) ) ;
#766 = ADVANCED_FACE ( 'NONE', ( #980 ), #78, .F. ) ;
#767 = EDGE_LOOP ( 'NONE', ( #149, #448, #1046, #295 ) ) ;
#768 = CARTESIAN_POINT ( 'NONE',  ( -3.578050733067440934E-46, 2.050000000000002043, -3.106756111889937689E-30 ) ) ;
#769 = CARTESIAN_POINT ( 'NONE',  ( -41.27183915600689801, 109.9500000000000028, 2.000000000000003109 ) ) ;
#770 = EDGE_LOOP ( 'NONE', ( #1084, #662, #1034, #703 ) ) ;
#771 = CARTESIAN_POINT ( 'NONE',  ( -46.27183915600690511, 109.0000000000000000, -1.999999999999994893 ) ) ;
#772 = FACE_OUTER_BOUND ( 'NONE', #241, .T. ) ;
#773 = FACE_OUTER_BOUND ( 'NONE', #903, .T. ) ;
#774 = CARTESIAN_POINT ( 'NONE',  ( -41.27183915600689801, 107.9500000000000028, 4.000000000000004441 ) ) ;
#775 = LINE ( 'NONE', #1020, #507 ) ;
#776 = EDGE_LOOP ( 'NONE', ( #625, #400, #926, #515 ) ) ;
#777 = DIRECTION ( 'NONE',  ( -1.000000000000000000, 0.000000000000000000, 0.000000000000000000 ) ) ;
#778 = VERTEX_POINT ( 'NONE', #829 ) ;
#779 = CYLINDRICAL_SURFACE ( 'NONE', #743, 3.000000000000002665 ) ;
#780 = CARTESIAN_POINT ( 'NONE',  ( -2.303399819106366090E-16, -3.798227098303919499E-62, -2.000000000000000000 ) ) ;
#781 = ORIENTED_EDGE ( 'NONE', *, *, #161, .T. ) ;
#782 = AXIS2_PLACEMENT_3D ( 'NONE', #635, #478, #642 ) ;
#783 = DIRECTION ( 'NONE',  ( 1.419579739364189686E-48, -1.000000000000000000, 1.232595164407830946E-32 ) ) ;
#784 = EDGE_LOOP ( 'NONE', ( #961, #41, #372, #891, #151, #494, #413, #269 ) ) ;
#785 = EDGE_CURVE ( 'NONE', #47, #911, #504, .T. ) ;
#786 = CARTESIAN_POINT ( 'NONE',  ( -42.22183915600690085, 5.000000000000004441, 4.000000000000005329 ) ) ;
#787 = DIRECTION ( 'NONE',  ( -1.000000000000000000, 0.000000000000000000, 1.151699909553183292E-16 ) ) ;
#788 = EDGE_CURVE ( 'NONE', #566, #2, #852, .T. ) ;
#789 = ORIENTED_EDGE ( 'NONE', *, *, #228, .F. ) ;
#790 = ORIENTED_EDGE ( 'NONE', *, *, #971, .F. ) ;
#791 = LINE ( 'NONE', #287, #1054 ) ;
#792 = CARTESIAN_POINT ( 'NONE',  ( -41.27183915600689801, 5.000000000000004441, 4.000000000000004441 ) ) ;
#793 = CARTESIAN_POINT ( 'NONE',  ( -41.27183915600689090, 4.050000000000001599, 4.000000000000004441 ) ) ;
#794 = CARTESIAN_POINT ( 'NONE',  ( 81.22406610312553710, -2.465190328815663534E-32, 1.999999999999989120 ) ) ;
#795 = ORIENTED_EDGE ( 'NONE', *, *, #213, .F. ) ;
#796 = CARTESIAN_POINT ( 'NONE',  ( -41.27183915600689801, 109.9500000000000028, 4.753277342306662701E-15 ) ) ;
#797 = LINE ( 'NONE', #863, #1031 ) ;
#798 = ORIENTED_EDGE ( 'NONE', *, *, #368, .F. ) ;
#799 = EDGE_CURVE ( 'NONE', #967, #1063, #346, .T. ) ;
#800 = CARTESIAN_POINT ( 'NONE',  ( 78.27406610312552004, 5.000000000000004441, 3.999999999999991562 ) ) ;
#801 = AXIS2_PLACEMENT_3D ( 'NONE', #628, #285, #965 ) ;
#802 = VECTOR ( 'NONE', #541, 1000.000000000000000 ) ;
#803 = FACE_OUTER_BOUND ( 'NONE', #909, .T. ) ;
#804 = EDGE_CURVE ( 'NONE', #120, #694, #998, .T. ) ;
#805 = DIRECTION ( 'NONE',  ( -1.151699909553183045E-16, 0.000000000000000000, -1.000000000000000000 ) ) ;
#806 = ORIENTED_EDGE ( 'NONE', *, *, #237, .F. ) ;
#807 = EDGE_LOOP ( 'NONE', ( #98, #540, #710, #587 ) ) ;
#808 = PRODUCT_CONTEXT ( 'NONE', #392, 'mechanical' ) ;
#809 = ORIENTED_EDGE ( 'NONE', *, *, #62, .F. ) ;
#810 = ORIENTED_EDGE ( 'NONE', *, *, #173, .F. ) ;
#811 = VERTEX_POINT ( 'NONE', #516 ) ;
#812 = ADVANCED_FACE ( 'NONE', ( #331 ), #175, .F. ) ;
#813 = LINE ( 'NONE', #68, #344 ) ;
#814 = EDGE_CURVE ( 'NONE', #827, #412, #584, .T. ) ;
#815 = ORIENTED_EDGE ( 'NONE', *, *, #389, .F. ) ;
#816 = VECTOR ( 'NONE', #465, 1000.000000000000000 ) ;
#817 = ORIENTED_EDGE ( 'NONE', *, *, #1033, .F. ) ;
#818 = VECTOR ( 'NONE', #850, 1000.000000000000000 ) ;
#819 = AXIS2_PLACEMENT_3D ( 'NONE', #461, #305, #48 ) ;
#820 = VECTOR ( 'NONE', #488, 1000.000000000000000 ) ;
#821 = EDGE_LOOP ( 'NONE', ( #134, #20, #900, #352, #1007, #789, #424, #433 ) ) ;
#822 = DIRECTION ( 'NONE',  ( -1.151699909553183045E-16, 0.000000000000000000, -1.000000000000000000 ) ) ;
#823 = ORIENTED_EDGE ( 'NONE', *, *, #471, .F. ) ;
#824 = SURFACE_STYLE_FILL_AREA ( #1083 ) ;
#825 = CARTESIAN_POINT ( 'NONE',  ( 78.27406610312552004, 2.050000000000002043, 1.999999999999996225 ) ) ;
#826 = DIRECTION ( 'NONE',  ( -1.000000000000000000, 0.000000000000000000, 0.000000000000000000 ) ) ;
#827 = VERTEX_POINT ( 'NONE', #501 ) ;
#828 = EDGE_CURVE ( 'NONE', #181, #412, #496, .T. ) ;
#829 = CARTESIAN_POINT ( 'NONE',  ( -43.87183915600690653, 107.0000000000000000, 4.000000000000005329 ) ) ;
#830 = VECTOR ( 'NONE', #543, 1000.000000000000000 ) ;
#831 = VECTOR ( 'NONE', #343, 1000.000000000000000 ) ;
#832 = EDGE_CURVE ( 'NONE', #683, #778, #923, .T. ) ;
#833 = VECTOR ( 'NONE', #511, 1000.000000000000000 ) ;
#834 = DIRECTION ( 'NONE',  ( -1.000000000000000000, 0.000000000000000000, 1.151699909553182552E-16 ) ) ;
#835 = AXIS2_PLACEMENT_3D ( 'NONE', #150, #66, #892 ) ;
#836 = CARTESIAN_POINT ( 'NONE',  ( -41.27183915600689090, 4.050000000000001599, 4.753277342306663490E-15 ) ) ;
#837 = VERTEX_POINT ( 'NONE', #434 ) ;
#838 = LINE ( 'NONE', #12, #258 ) ;
#839 = DIRECTION ( 'NONE',  ( -1.000000000000000000, 0.000000000000000000, 0.000000000000000000 ) ) ;
#840 = DIRECTION ( 'NONE',  ( 0.000000000000000000, -0.1723803317522495937, 0.9850304671557039704 ) ) ;
#841 = ORIENTED_EDGE ( 'NONE', *, *, #1066, .T. ) ;
#842 = DIRECTION ( 'NONE',  ( -1.419579739364189686E-48, 1.000000000000000000, -1.232595164407830946E-32 ) ) ;
#843 = DIRECTION ( 'NONE',  ( -1.151699909553183292E-16, -1.232595164407830946E-32, -1.000000000000000000 ) ) ;
#844 = CARTESIAN_POINT ( 'NONE',  ( 81.22406610312553710, 5.000000000000004441, 1.999999999999990452 ) ) ;
#845 = EDGE_CURVE ( 'NONE', #694, #47, #997, .T. ) ;
#846 = ORIENTED_EDGE ( 'NONE', *, *, #734, .T. ) ;
#847 = CARTESIAN_POINT ( 'NONE',  ( -46.27183915600690511, -2.392219471338273174E-62, 5.329127297083256590E-15 ) ) ;
#848 = AXIS2_PLACEMENT_3D ( 'NONE', #502, #1, #659 ) ;
#849 = EDGE_CURVE ( 'NONE', #634, #1070, #838, .T. ) ;
#850 = DIRECTION ( 'NONE',  ( 1.000000000000000000, 0.000000000000000000, -1.151699909553183292E-16 ) ) ;
#851 = AXIS2_PLACEMENT_3D ( 'NONE', #259, #197, #839 ) ;
#852 = CIRCLE ( 'NONE', #393, 0.9500000000000063949 ) ;
#853 = LINE ( 'NONE', #109, #715 ) ;
#854 = CIRCLE ( 'NONE', #580, 2.600000000000004974 ) ;
#855 = ORIENTED_EDGE ( 'NONE', *, *, #65, .T. ) ;
#856 = DIRECTION ( 'NONE',  ( 0.000000000000000000, -1.000000000000000000, 0.000000000000000000 ) ) ;
#857 = CYLINDRICAL_SURFACE ( 'NONE', #104, 3.000000000000002665 ) ;
#858 = DIRECTION ( 'NONE',  ( -1.151699909553183045E-16, 0.000000000000000000, -1.000000000000000000 ) ) ;
#859 = CYLINDRICAL_SURFACE ( 'NONE', #158, 2.950000000000008171 ) ;
#860 = VERTEX_POINT ( 'NONE', #347 ) ;
#861 = CARTESIAN_POINT ( 'NONE',  ( 78.27406610312552004, 5.000000000000004441, 1.999999999999989120 ) ) ;
#862 = ORIENTED_EDGE ( 'NONE', *, *, #65, .F. ) ;
#863 = CARTESIAN_POINT ( 'NONE',  ( -46.27183915600690511, -2.392219471338273174E-62, -1.999999999999994893 ) ) ;
#864 = CARTESIAN_POINT ( 'NONE',  ( 78.27406610312547741, 107.9500000000000028, 3.999999999999991562 ) ) ;
#865 = ORIENTED_EDGE ( 'NONE', *, *, #536, .T. ) ;
#866 = DIRECTION ( 'NONE',  ( -1.151699909553183292E-16, -1.232595164407830946E-32, -1.000000000000000000 ) ) ;
#867 = EDGE_CURVE ( 'NONE', #778, #191, #564, .T. ) ;
#868 = DIRECTION ( 'NONE',  ( -1.000000000000000000, 0.000000000000000000, 1.151699909553190687E-16 ) ) ;
#869 = ORIENTED_EDGE ( 'NONE', *, *, #395, .T. ) ;
#870 = FACE_OUTER_BOUND ( 'NONE', #1026, .T. ) ;
#871 = CARTESIAN_POINT ( 'NONE',  ( 78.27406610312547741, 109.6000000000000085, 3.999999999999991562 ) ) ;
#872 = EDGE_CURVE ( 'NONE', #599, #634, #408, .T. ) ;
#873 = AXIS2_PLACEMENT_3D ( 'NONE', #427, #1025, #271 ) ;
#874 = ORIENTED_EDGE ( 'NONE', *, *, #512, .F. ) ;
#875 = AXIS2_PLACEMENT_3D ( 'NONE', #59, #627, #544 ) ;
#876 = CARTESIAN_POINT ( 'NONE',  ( 78.27406610312547741, 107.9500000000000028, -9.014823485132955588E-15 ) ) ;
#877 = CARTESIAN_POINT ( 'NONE',  ( 80.27406610312552004, 0.000000000000000000, -2.000000000000009326 ) ) ;
#878 = ORIENTED_EDGE ( 'NONE', *, *, #77, .F. ) ;
#879 = DIRECTION ( 'NONE',  ( -1.000000000000000000, 0.000000000000000000, 1.151699909553183045E-16 ) ) ;
#880 = PLANE ( 'NONE',  #325 ) ;
#881 = ORIENTED_EDGE ( 'NONE', *, *, #748, .F. ) ;
#882 = SHAPE_DEFINITION_REPRESENTATION ( #291, #741 ) ;
#883 = CARTESIAN_POINT ( 'NONE',  ( 80.27406610312552004, 112.0000000000000000, -2.000000000000009326 ) ) ;
#884 = CARTESIAN_POINT ( 'NONE',  ( 83.27406610312553426, 109.0000000000000000, -9.590673439909552633E-15 ) ) ;
#885 = EDGE_CURVE ( 'NONE', #674, #727, #373, .T. ) ;
#886 = ORIENTED_EDGE ( 'NONE', *, *, #643, .F. ) ;
#887 =( NAMED_UNIT ( * ) PLANE_ANGLE_UNIT ( ) SI_UNIT ( $, .RADIAN. ) );
#888 = DIRECTION ( 'NONE',  ( -1.151699909553183292E-16, -1.232595164407830946E-32, -1.000000000000000000 ) ) ;
#889 = DIRECTION ( 'NONE',  ( -1.000000000000000000, 0.000000000000000000, 0.000000000000000000 ) ) ;
#890 = AXIS2_PLACEMENT_3D ( 'NONE', #397, #575, #139 ) ;
#891 = ORIENTED_EDGE ( 'NONE', *, *, #989, .T. ) ;
#892 = DIRECTION ( 'NONE',  ( -1.000000000000000000, 0.000000000000000000, 0.000000000000000000 ) ) ;
#893 = AXIS2_PLACEMENT_3D ( 'NONE', #936, #189, #525 ) ;
#894 = CIRCLE ( 'NONE', #15, 3.000000000000002665 ) ;
#895 = ORIENTED_EDGE ( 'NONE', *, *, #213, .T. ) ;
#896 = CARTESIAN_POINT ( 'NONE',  ( 78.27406610312547741, 109.9500000000000028, 1.999999999999989120 ) ) ;
#897 = ORIENTED_EDGE ( 'NONE', *, *, #867, .F. ) ;
#898 = EDGE_CURVE ( 'NONE', #726, #837, #933, .T. ) ;
#899 = CARTESIAN_POINT ( 'NONE',  ( 78.27406610312552004, 5.000000000000004441, -9.014124624680264208E-15 ) ) ;
#900 = ORIENTED_EDGE ( 'NONE', *, *, #161, .F. ) ;
#901 = EDGE_CURVE ( 'NONE', #1059, #50, #24, .T. ) ;
#902 = EDGE_CURVE ( 'NONE', #326, #267, #509, .T. ) ;
#903 = EDGE_LOOP ( 'NONE', ( #809, #958, #238, #172 ) ) ;
#904 = FACE_OUTER_BOUND ( 'NONE', #75, .T. ) ;
#905 = AXIS2_PLACEMENT_3D ( 'NONE', #84, #888, #582 ) ;
#906 = AXIS2_PLACEMENT_3D ( 'NONE', #21, #843, #834 ) ;
#907 = CARTESIAN_POINT ( 'NONE',  ( -2.303399819106366090E-16, 112.0000000000000000, -2.000000000000000000 ) ) ;
#908 = AXIS2_PLACEMENT_3D ( 'NONE', #600, #959, #268 ) ;
#909 = EDGE_LOOP ( 'NONE', ( #30, #302, #546, #581 ) ) ;
#910 = FACE_OUTER_BOUND ( 'NONE', #770, .T. ) ;
#911 = VERTEX_POINT ( 'NONE', #701 ) ;
#912 = CARTESIAN_POINT ( 'NONE',  ( -2.303399819106366090E-16, 0.000000000000000000, -2.000000000000000000 ) ) ;
#913 = EDGE_CURVE ( 'NONE', #1003, #937, #36, .T. ) ;
#914 = DIRECTION ( 'NONE',  ( 1.151699909553183045E-16, -0.000000000000000000, 1.000000000000000000 ) ) ;
#915 = ADVANCED_FACE ( 'NONE', ( #535 ), #299, .T. ) ;
#916 = ORIENTED_EDGE ( 'NONE', *, *, #389, .T. ) ;
#917 = DIRECTION ( 'NONE',  ( 1.151699909553183292E-16, 1.232595164407830946E-32, 1.000000000000000000 ) ) ;
#918 = CARTESIAN_POINT ( 'NONE',  ( 78.27406610312552004, 2.050000000000002043, -9.014823485132958744E-15 ) ) ;
#919 = ORIENTED_EDGE ( 'NONE', *, *, #94, .F. ) ;
#920 = UNCERTAINTY_MEASURE_WITH_UNIT (LENGTH_MEASURE( 1.000000000000000082E-05 ), #321, 'distance_accuracy_value', 'NONE');
#921 = DIRECTION ( 'NONE',  ( 1.000000000000000000, 0.000000000000000000, -1.151699909553183292E-16 ) ) ;
#922 = CIRCLE ( 'NONE', #216, 2.950000000000001066 ) ;
#923 = CIRCLE ( 'NONE', #328, 2.600000000000004974 ) ;
#924 = CARTESIAN_POINT ( 'NONE',  ( -41.27183915600689801, 109.6000000000000085, 4.000000000000004441 ) ) ;
#925 = LINE ( 'NONE', #22, #629 ) ;
#926 = ORIENTED_EDGE ( 'NONE', *, *, #722, .T. ) ;
#927 = EDGE_CURVE ( 'NONE', #50, #6, #688, .T. ) ;
#928 = DIRECTION ( 'NONE',  ( 0.000000000000000000, 1.000000000000000000, 0.000000000000000000 ) ) ;
#929 = EDGE_CURVE ( 'NONE', #599, #167, #1041, .T. ) ;
#930 = FACE_OUTER_BOUND ( 'NONE', #973, .T. ) ;
#931 = DIRECTION ( 'NONE',  ( -1.000000000000000000, 0.000000000000000000, 1.151699909553182552E-16 ) ) ;
#932 = ORIENTED_EDGE ( 'NONE', *, *, #593, .T. ) ;
#933 = LINE ( 'NONE', #464, #802 ) ;
#934 = CARTESIAN_POINT ( 'NONE',  ( -3.548949348410474798E-46, -3.798227098303919499E-62, -3.081487911019577365E-30 ) ) ;
#935 = LINE ( 'NONE', #1029, #458 ) ;
#936 = CARTESIAN_POINT ( 'NONE',  ( -44.22183915600690085, -2.465190328815664081E-32, 2.000000000000003553 ) ) ;
#937 = VERTEX_POINT ( 'NONE', #1027 ) ;
#938 = LINE ( 'NONE', #441, #675 ) ;
#939 = FACE_OUTER_BOUND ( 'NONE', #91, .T. ) ;
#940 = CARTESIAN_POINT ( 'NONE',  ( -3.548949348410474798E-46, 0.000000000000000000, -3.081487911019577365E-30 ) ) ;
#941 = VECTOR ( 'NONE', #122, 1000.000000000000000 ) ;
#942 = AXIS2_PLACEMENT_3D ( 'NONE', #273, #613, #945 ) ;
#943 = CARTESIAN_POINT ( 'NONE',  ( 78.27406610312552004, 4.049999999999998934, 3.999999999999991562 ) ) ;
#944 = EDGE_LOOP ( 'NONE', ( #1028, #862, #729, #573 ) ) ;
#945 = DIRECTION ( 'NONE',  ( -1.000000000000000000, 0.000000000000000000, 1.151699909553182552E-16 ) ) ;
#946 = CARTESIAN_POINT ( 'NONE',  ( 80.27406610312552004, 3.000000000000000000, -2.000000000000009326 ) ) ;
#947 = CARTESIAN_POINT ( 'NONE',  ( 5.488339252113815603E-16, 4.050000000000000711, 4.000000000000000000 ) ) ;
#948 = DIRECTION ( 'NONE',  ( -1.000000000000000000, 0.000000000000000000, 0.000000000000000000 ) ) ;
#949 = EDGE_CURVE ( 'NONE', #120, #985, #791, .T. ) ;
#950 = ORIENTED_EDGE ( 'NONE', *, *, #986, .T. ) ;
#951 = DIRECTION ( 'NONE',  ( 1.000000000000000000, 0.000000000000000000, -1.151699909553183292E-16 ) ) ;
#952 = EDGE_CURVE ( 'NONE', #167, #163, #579, .T. ) ;
#953 = CARTESIAN_POINT ( 'NONE',  ( 81.22406610312553710, -6.266286689562481971E-62, 3.999999999999990674 ) ) ;
#954 = EDGE_CURVE ( 'NONE', #47, #995, #107, .T. ) ;
#955 = DIRECTION ( 'NONE',  ( -1.151699909553183045E-16, 0.000000000000000000, -1.000000000000000000 ) ) ;
#956 = PRODUCT ( 'Base', 'Base', '', ( #808 ) ) ;
#957 = DIRECTION ( 'NONE',  ( -1.151699909553183292E-16, -1.232595164407830946E-32, -1.000000000000000000 ) ) ;
#958 = ORIENTED_EDGE ( 'NONE', *, *, #190, .T. ) ;
#959 = DIRECTION ( 'NONE',  ( -0.000000000000000000, -0.000000000000000000, -1.000000000000000000 ) ) ;
#960 = PLANE ( 'NONE',  #390 ) ;
#961 = ORIENTED_EDGE ( 'NONE', *, *, #872, .T. ) ;
#962 = FACE_OUTER_BOUND ( 'NONE', #807, .T. ) ;
#963 = CONICAL_SURFACE ( 'NONE', #848, 2.950000000000001066, 0.1732456664523646384 ) ;
#964 = VECTOR ( 'NONE', #252, 1000.000000000000000 ) ;
#965 = DIRECTION ( 'NONE',  ( -1.000000000000000000, 0.000000000000000000, 1.151699909553183292E-16 ) ) ;
#966 = VECTOR ( 'NONE', #119, 1000.000000000000000 ) ;
#967 = VERTEX_POINT ( 'NONE', #876 ) ;
#968 = AXIS2_PLACEMENT_3D ( 'NONE', #708, #979, #728 ) ;
#969 = DIRECTION ( 'NONE',  ( -1.000000000000000000, 0.000000000000000000, 0.000000000000000000 ) ) ;
#970 = CARTESIAN_POINT ( 'NONE',  ( 80.27406610312552004, 0.000000000000000000, -2.000000000000009326 ) ) ;
#971 = EDGE_CURVE ( 'NONE', #1037, #726, #528, .T. ) ;
#972 = FACE_OUTER_BOUND ( 'NONE', #1065, .T. ) ;
#973 = EDGE_LOOP ( 'NONE', ( #622, #386, #738, #211 ) ) ;
#974 = DIRECTION ( 'NONE',  ( -1.000000000000000000, 0.000000000000000000, 1.151699909553182305E-16 ) ) ;
#975 = FACE_OUTER_BOUND ( 'NONE', #475, .T. ) ;
#976 = ADVANCED_FACE ( 'NONE', ( #112 ), #547, .T. ) ;
#977 = CARTESIAN_POINT ( 'NONE',  ( -46.27183915600690511, 109.0000000000000000, -1.999999999999994893 ) ) ;
#978 = VERTEX_POINT ( 'NONE', #362 ) ;
#979 = DIRECTION ( 'NONE',  ( 0.000000000000000000, 0.000000000000000000, 1.000000000000000000 ) ) ;
#980 = FACE_OUTER_BOUND ( 'NONE', #482, .T. ) ;
#981 = ORIENTED_EDGE ( 'NONE', *, *, #188, .T. ) ;
#982 = DIRECTION ( 'NONE',  ( -1.000000000000000000, 0.000000000000000000, 0.000000000000000000 ) ) ;
#983 = VECTOR ( 'NONE', #591, 1000.000000000000000 ) ;
#984 = AXIS2_PLACEMENT_3D ( 'NONE', #92, #1022, #205 ) ;
#985 = VERTEX_POINT ( 'NONE', #696 ) ;
#986 = EDGE_CURVE ( 'NONE', #339, #727, #1016, .T. ) ;
#987 = LINE ( 'NONE', #896, #820 ) ;
#988 = ORIENTED_EDGE ( 'NONE', *, *, #949, .F. ) ;
#989 = EDGE_CURVE ( 'NONE', #204, #1003, #447, .T. ) ;
#990 = EDGE_CURVE ( 'NONE', #319, #1082, #938, .T. ) ;
#991 = VERTEX_POINT ( 'NONE', #40 ) ;
#992 = DIRECTION ( 'NONE',  ( -1.000000000000000000, 0.000000000000000000, 0.000000000000000000 ) ) ;
#993 = ORIENTED_EDGE ( 'NONE', *, *, #487, .F. ) ;
#994 =( NAMED_UNIT ( * ) SI_UNIT ( $, .STERADIAN. ) SOLID_ANGLE_UNIT ( ) );
#995 = VERTEX_POINT ( 'NONE', #19 ) ;
#996 = AXIS2_PLACEMENT_3D ( 'NONE', #597, #589, #685 ) ;
#997 = LINE ( 'NONE', #912, #1011 ) ;
#998 = CIRCLE ( 'NONE', #88, 3.000000000000002665 ) ;
#999 = EDGE_CURVE ( 'NONE', #991, #319, #1073, .T. ) ;
#1000 = DIRECTION ( 'NONE',  ( 1.000000000000000000, 0.000000000000000000, -1.445602896647337931E-16 ) ) ;
#1001 = CARTESIAN_POINT ( 'NONE',  ( 81.22406610312553710, 107.0000000000000000, 1.999999999999991784 ) ) ;
#1002 = DIRECTION ( 'NONE',  ( 1.151699909553183292E-16, 1.232595164407830946E-32, 1.000000000000000000 ) ) ;
#1003 = VERTEX_POINT ( 'NONE', #529 ) ;
#1004 = DIRECTION ( 'NONE',  ( -1.000000000000000000, 0.000000000000000000, 0.000000000000000000 ) ) ;
#1005 = FACE_OUTER_BOUND ( 'NONE', #220, .T. ) ;
#1006 = LINE ( 'NONE', #769, #128 ) ;
#1007 = ORIENTED_EDGE ( 'NONE', *, *, #452, .F. ) ;
#1008 = CARTESIAN_POINT ( 'NONE',  ( 78.27406610312552004, 107.0000000000000000, -9.014124624680264208E-15 ) ) ;
#1009 = EDGE_CURVE ( 'NONE', #456, #181, #854, .T. ) ;
#1010 = AXIS2_PLACEMENT_3D ( 'NONE', #136, #280, #948 ) ;
#1011 = VECTOR ( 'NONE', #336, 1000.000000000000000 ) ;
#1012 = LINE ( 'NONE', #348, #657 ) ;
#1013 = CIRCLE ( 'NONE', #278, 2.950000000000008171 ) ;
#1014 = DIRECTION ( 'NONE',  ( 1.151699909553183045E-16, -0.000000000000000000, 1.000000000000000000 ) ) ;
#1015 = EDGE_LOOP ( 'NONE', ( #846, #1021, #603, #111 ) ) ;
#1016 = LINE ( 'NONE', #847, #177 ) ;
#1017 = CARTESIAN_POINT ( 'NONE',  ( 79.22406610312553710, 5.000000000000004441, 3.999999999999990674 ) ) ;
#1018 = EDGE_CURVE ( 'NONE', #811, #70, #641, .T. ) ;
#1019 = PLANE ( 'NONE',  #1069 ) ;
#1020 = CARTESIAN_POINT ( 'NONE',  ( -43.27183915600689801, 112.0000000000000000, -1.999999999999995337 ) ) ;
#1021 = ORIENTED_EDGE ( 'NONE', *, *, #148, .F. ) ;
#1022 = DIRECTION ( 'NONE',  ( -1.151699909553183292E-16, -1.232595164407830946E-32, -1.000000000000000000 ) ) ;
#1023 = ORIENTED_EDGE ( 'NONE', *, *, #845, .T. ) ;
#1024 = CARTESIAN_POINT ( 'NONE',  ( 83.27406610312553426, 109.0000000000000000, -2.000000000000009770 ) ) ;
#1025 = DIRECTION ( 'NONE',  ( -1.151699909553183292E-16, -1.232595164407830946E-32, -1.000000000000000000 ) ) ;
#1026 = EDGE_LOOP ( 'NONE', ( #376, #126, #486, #592 ) ) ;
#1027 = CARTESIAN_POINT ( 'NONE',  ( 79.22406610312553710, 107.0000000000000000, 3.999999999999990674 ) ) ;
#1028 = ORIENTED_EDGE ( 'NONE', *, *, #248, .T. ) ;
#1029 = CARTESIAN_POINT ( 'NONE',  ( 83.27406610312553426, -6.328577613974665732E-62, -2.000000000000009770 ) ) ;
#1030 = AXIS2_PLACEMENT_3D ( 'NONE', #108, #279, #337 ) ;
#1031 = VECTOR ( 'NONE', #723, 1000.000000000000000 ) ;
#1032 = DIRECTION ( 'NONE',  ( -1.151699909553183045E-16, 0.000000000000000000, -1.000000000000000000 ) ) ;
#1033 = EDGE_CURVE ( 'NONE', #1048, #1055, #987, .T. ) ;
#1034 = ORIENTED_EDGE ( 'NONE', *, *, #62, .T. ) ;
#1035 = DIRECTION ( 'NONE',  ( -1.151699909553183292E-16, -1.232595164407830946E-32, -1.000000000000000000 ) ) ;
#1036 = DIRECTION ( 'NONE',  ( 1.151699909553183045E-16, -0.000000000000000000, 1.000000000000000000 ) ) ;
#1037 = VERTEX_POINT ( 'NONE', #311 ) ;
#1038 = CARTESIAN_POINT ( 'NONE',  ( 78.27406610312552004, 5.000000000000004441, 3.999999999999991562 ) ) ;
#1039 = DIRECTION ( 'NONE',  ( 0.9850304671557039704, 2.124751633568406659E-33, 0.1723803317522495937 ) ) ;
#1040 = ORIENTED_EDGE ( 'NONE', *, *, #332, .F. ) ;
#1041 = LINE ( 'NONE', #604, #440 ) ;
#1042 = PLANE ( 'NONE',  #421 ) ;
#1043 = ORIENTED_EDGE ( 'NONE', *, *, #785, .T. ) ;
#1044 = CARTESIAN_POINT ( 'NONE',  ( -41.27183915600689801, 109.9500000000000028, 4.000000000000004441 ) ) ;
#1045 = LINE ( 'NONE', #864, #313 ) ;
#1046 = ORIENTED_EDGE ( 'NONE', *, *, #97, .F. ) ;
#1047 = CARTESIAN_POINT ( 'NONE',  ( -5.138878656498367246E-46, 112.0000000000000000, -4.461994495156348024E-30 ) ) ;
#1048 = VERTEX_POINT ( 'NONE', #470 ) ;
#1049 = FACE_OUTER_BOUND ( 'NONE', #23, .T. ) ;
#1050 = EDGE_CURVE ( 'NONE', #191, #1048, #744, .T. ) ;
#1051 = CONICAL_SURFACE ( 'NONE', #562, 2.950000000000008171, 0.1732456664523663037 ) ;
#1052 = AXIS2_PLACEMENT_3D ( 'NONE', #1074, #155, #492 ) ;
#1053 = LINE ( 'NONE', #551, #941 ) ;
#1054 = VECTOR ( 'NONE', #185, 1000.000000000000000 ) ;
#1055 = VERTEX_POINT ( 'NONE', #645 ) ;
#1056 = DIRECTION ( 'NONE',  ( -1.151699909553183045E-16, 0.000000000000000000, -1.000000000000000000 ) ) ;
#1057 = CARTESIAN_POINT ( 'NONE',  ( 80.27406610312552004, 112.0000000000000000, -9.244517586333433901E-15 ) ) ;
#1058 = LINE ( 'NONE', #429, #314 ) ;
#1059 = VERTEX_POINT ( 'NONE', #572 ) ;
#1060 =( LENGTH_UNIT ( ) NAMED_UNIT ( * ) SI_UNIT ( .MILLI., .METRE. ) );
#1061 = FACE_OUTER_BOUND ( 'NONE', #1015, .T. ) ;
#1062 = DIRECTION ( 'NONE',  ( -1.151699909553183045E-16, 0.000000000000000000, -1.000000000000000000 ) ) ;
#1063 = VERTEX_POINT ( 'NONE', #317 ) ;
#1064 = DIRECTION ( 'NONE',  ( 1.000000000000000000, 0.000000000000000000, -1.151699909553183292E-16 ) ) ;
#1065 = EDGE_LOOP ( 'NONE', ( #450, #281, #878, #817 ) ) ;
#1066 = EDGE_CURVE ( 'NONE', #1082, #147, #300, .T. ) ;
#1067 = ORIENTED_EDGE ( 'NONE', *, *, #832, .T. ) ;
#1068 = APPLICATION_PROTOCOL_DEFINITION ( 'draft international standard', 'automotive_design', 1998, #444 ) ;
#1069 = AXIS2_PLACEMENT_3D ( 'NONE', #95, #353, #664 ) ;
#1070 = VERTEX_POINT ( 'NONE', #553 ) ;
#1071 = VECTOR ( 'NONE', #454, 1000.000000000000000 ) ;
#1072 = EDGE_CURVE ( 'NONE', #1055, #827, #1013, .T. ) ;
#1073 = CIRCLE ( 'NONE', #594, 2.950000000000008171 ) ;
#1074 = CARTESIAN_POINT ( 'NONE',  ( 80.27406610312552004, 3.000000000000000000, -9.244517586333433901E-15 ) ) ;
#1075 = ORIENTED_EDGE ( 'NONE', *, *, #385, .T. ) ;
#1076 = ORIENTED_EDGE ( 'NONE', *, *, #484, .T. ) ;
#1077 = EDGE_LOOP ( 'NONE', ( #981, #527, #735, #64 ) ) ;
#1078 = CARTESIAN_POINT ( 'NONE',  ( 80.27406610312552004, 109.0000000000000000, -2.000000000000009326 ) ) ;
#1079 = ADVANCED_FACE ( 'NONE', ( #381 ), #236, .F. ) ;
#1080 = DIRECTION ( 'NONE',  ( 0.000000000000000000, -1.000000000000000000, 0.000000000000000000 ) ) ;
#1081 = EDGE_CURVE ( 'NONE', #937, #1063, #154, .T. ) ;
#1082 = VERTEX_POINT ( 'NONE', #557 ) ;
#1083 = FILL_AREA_STYLE ('',( #422 ) ) ;
#1084 = ORIENTED_EDGE ( 'NONE', *, *, #722, .F. ) ;
#1085 = VECTOR ( 'NONE', #1036, 1000.000000000000000 ) ;
#1086 = DIRECTION ( 'NONE',  ( -1.000000000000000000, 0.000000000000000000, 1.151699909553182305E-16 ) ) ;
#1087 = AXIS2_PLACEMENT_3D ( 'NONE', #451, #856, #31 ) ;
ENDSEC;
END-ISO-10303-21;
